<?xml version="1.0" standalone="no"?>
<!DOCTYPE svg PUBLIC "-//W3C//DTD SVG 1.1//EN" "http://www.w3.org/Graphics/SVG/1.1/DTD/svg11.dtd" >
<!--
2013-9-30: Created.
-->
<svg>
<metadata>
Created by iconfont
</metadata>
<defs>

<font id="iconfont" horiz-adv-x="1024" >
  <font-face
    font-family="iconfont"
    font-weight="500"
    font-stretch="normal"
    units-per-em="1024"
    ascent="896"
    descent="-128"
  />
    <missing-glyph />
    
    <glyph glyph-name="ubuntu" unicode="&#58946;" d="M788.581246 39.007801c51.486628 0 93.481068-41.99444 93.481068-93.507674 0-51.486628-41.99444-93.490278-93.481068-93.490278-51.505048 0-93.498464 42.002626-93.498464 93.490278C695.082782-2.985616 737.076198 39.007801 788.581246 39.007801L788.581246 39.007801zM379.537106 13.255277c-63.009056 43.996027-111.49228 107.433848-136.591935 181.527356 34.432207 23.508413 57.109696 63.044872 57.109696 107.720374 0 46.463218-24.527626 87.366813-61.301158 110.464881 23.196305 78.419024 72.313979 145.915277 137.369647 192.459337l77.793784-125.651768c-50.253544-39.410592-82.628906-100.685143-82.628906-169.245635 0-67.979254 31.821753-128.753409 81.3334-168.199817L379.537106 13.255277 379.537106 13.255277zM169.710216 396.010681c51.513234 0 93.507674-42.002626 93.507674-93.498464 0-51.505048-41.99444-93.507674-93.507674-93.507674-51.486628 0-93.490278 42.002626-93.490278 93.507674C76.219939 354.008055 118.223588 396.010681 169.710216 396.010681L169.710216 396.010681zM586.30738 672.922455c23.062252 0 45.613874-2.199085 67.505463-6.363941-0.366344-3.968381-0.562818-8.000208-0.562818-12.05864 0-71.795163 58.539254-130.352837 130.317021-130.352837 28.193109 0 54.302767 9.027607 75.66633 24.331151 49.627281-56.81396 81.843006-129.163755 88.261183-208.620411l-147.57815-4.568039c-12.334933 106.844423-103.527888 190.286858-213.617216 190.286858-31.106462 0-60.702524-6.659677-87.438445-18.654872l-73.833589 127.957277C473.643414 659.192755 528.429181 672.922455 586.30738 672.922455L586.30738 672.922455zM947.779038 284.992191c-6.060019-86.419232-42.646286-164.650991-99.023294-223.932142-18.029632 9.43079-38.489616 14.784728-60.166311 14.784728-68.443835 0-124.882242-53.230342-129.959887-120.413464-23.39278-4.764514-47.563272-7.284917-72.313979-7.284917-56.743352 0-110.527302 13.176091-158.402683 36.612872l73.529667 128.261199c26.065655-11.271718 54.767348-17.537422 84.873016-17.537422 110.60712 0 202.149023 84.246753 213.804481 191.842283L947.779038 284.992191 947.779038 284.992191zM783.575232 747.990151c51.505048 0 93.498464-42.011836 93.498464-93.498464 0-51.513234-41.99444-93.507674-93.498464-93.507674-51.495838 0-93.498464 41.99444-93.498464 93.507674C690.076768 705.986501 732.079394 747.990151 783.575232 747.990151L783.575232 747.990151z"  horiz-adv-x="1024" />

    
    <glyph glyph-name="memcached" unicode="&#59080;" d="M510.976 346.6944c139.1616 0 251.904 52.8384 251.904 117.9648S650.1376 582.624 510.976 582.624s-251.904-52.8384-251.904-117.9648S371.8144 346.6944 510.976 346.6944zM612.352 169.1328c1.3312-51.3024-0.7168-97.9968-0.7168-97.9968l-49.664 0c9.728 34.6112 12.6976 66.9696 12.9024 92.3648-11.264-1.3312-22.7328-2.1504-34.4064-2.7648-9.0112-24.2688-13.7216-44.544-13.7216-44.544l-31.232 0c0 0-4.7104 20.3776-13.7216 44.544-11.776 0.512-23.2448 1.536-34.4064 2.7648 0.2048-25.6 3.2768-57.9584 12.9024-92.3648l-49.7664 0c0 0-2.048 46.7968-0.7168 97.9968-66.1504 12.5952-119.0912 37.376-150.528 69.7344l0-103.3216C260.4032 70.7264 372.6336 18.4 511.0784 18.4S761.7536 70.7264 762.88 135.4432L762.88 238.7648C731.5456 206.4064 678.4 181.728 612.352 169.1328zM489.6768 75.8464c-6.7584 0-12.1856 5.4272-12.1856 12.1856 0 6.7584 5.4272 12.1856 12.1856 12.1856 6.7584 0 12.1856-5.4272 12.1856-12.1856C501.8624 81.376 496.3328 75.8464 489.6768 75.8464zM534.8352 75.8464c-6.7584 0-12.1856 5.4272-12.1856 12.1856 0 6.7584 5.4272 12.1856 12.1856 12.1856s12.1856-5.4272 12.1856-12.1856C547.1232 81.376 541.5936 75.8464 534.8352 75.8464zM410.3168 192.48c1.4336 28.5696 3.9936 56.7296 8.9088 76.9024l48.128 0L510.976 211.936l43.52 57.4464 48.128 0c4.9152-20.3776 7.5776-48.3328 8.9088-76.9024 88.4736 18.0224 150.4256 59.1872 151.2448 107.1104L762.7776 402.8096c-46.1824-47.616-139.264-78.7456-251.8016-78.7456-112.5376 0-205.6192 31.3344-251.904 78.9504l0-103.3216C259.7888 251.6672 321.9456 210.5024 410.3168 192.48zM574.2592 186.336c-1.1264 20.48-3.584 32.8704-3.584 32.8704-7.8848-10.1376-14.848-22.528-20.7872-35.2256C558.08 184.5952 566.272 185.4144 574.2592 186.336zM447.6928 186.2336c7.9872-1.024 16.0768-1.7408 24.3712-2.3552-5.8368 12.8-12.8 25.1904-20.7872 35.2256C451.2768 219.104 448.7168 206.7136 447.6928 186.2336z"  horiz-adv-x="1024" />

    
    <glyph glyph-name="link" unicode="&#59195;" d="M541.9 389.7c-16.5-16.5-16.5-43.3 0-59.8 84.5-84.5 14.7-164.4 0-179.5L302.6-88.9c-49.5-49.5-130-49.5-179.5 0s-49.5 130 0 179.5l179.5 179.5c16.5 16.5 16.5 43.3 0 59.8-16.5 16.5-43.3 16.5-59.8 0L63.3 150.4c-82.5-82.5-82.5-216.7 0-299.1s216.7-82.5 299.2 0l239.3 239.3c51.7 51.7 118.3 180.9 0 299.1C585.2 406.2 558.4 406.2 541.9 389.7zM960.8 748.7c-82.5 82.5-216.7 82.5-299.2 0L422.3 509.4c-51.7-51.7-118.3-180.8 0-299.1 16.5-16.5 43.3-16.5 59.8 0 16.5 16.5 16.5 43.3 0 59.8-84.5 84.5-14.7 164.5 0 179.5l239.3 239.3c49.5 49.5 130 49.5 179.5 0 49.5-49.5 49.5-130 0-179.5L721.4 329.9c-16.5-16.5-16.5-43.3 0-59.8 16.5-16.5 43.3-16.5 59.8 0l179.5 179.5C1043.2 532.1 1043.2 666.3 960.8 748.7z"  horiz-adv-x="1024" />

    
    <glyph glyph-name="memcached1" unicode="&#59096;" d="M434.7904-7.2m-42.1888 0a20.6 20.6 0 1 0 84.3776 0 20.6 20.6 0 1 0-84.3776 0ZM589.2096-7.2m-42.1888 0a20.6 20.6 0 1 0 84.3776 0 20.6 20.6 0 1 0-84.3776 0ZM841.1136 649.3888l-164.864 0C645.12 648.9792 525.7216 439.6736 512 439.6736c-2.048 0-6.3488 4.5056-12.0832 12.0832 0 0 0 0 0 0-5.5296 7.168-12.6976 17.2032-20.6848 28.8768-39.3216 57.5488-101.7856 156.672-127.5904 167.5264-0.2048 0-0.4096 0.2048-0.6144 0.2048-0.2048 0-0.4096 0.2048-0.6144 0.2048-0.4096 0-0.6144 0.2048-0.8192 0.2048-0.2048 0-0.4096 0-0.6144 0.2048-0.4096 0-1.024 0.2048-1.4336 0.2048L182.8864 649.184C125.952 288.5312 155.648-49.3888 155.648-49.3888l177.9712 0c-0.4096 2.048-0.8192 4.096-1.2288 6.5536 0 0.2048 0 0.2048 0 0.4096 0 0.4096-0.2048 0.8192-0.2048 1.4336 0 0.4096-0.2048 0.8192-0.2048 1.2288-14.1312 79.0528-48.5376 314.1632-44.8512 429.056 0 0 0 0.2048 0 0.2048 0 1.2288 0 2.2528 0.2048 3.2768 0 0.2048 0 0.2048 0 0.4096 0 1.024 0 2.048 0.2048 3.072 0 0.2048 0 0.4096 0 0.6144 0 1.024 0 1.8432 0.2048 2.8672 0 0.2048 0 0.6144 0 0.8192 0 0.8192 0.2048 1.6384 0.2048 2.4576 0 0.4096 0 0.6144 0 1.024 0 0.8192 0.2048 1.4336 0.2048 2.2528 0 0.4096 0 0.8192 0 1.2288 0 0.6144 0.2048 1.2288 0.2048 2.048 0 0.4096 0 0.8192 0.2048 1.4336 0 0.6144 0.2048 1.2288 0.2048 1.6384 0 0.4096 0.2048 1.024 0.2048 1.4336 0 0.4096 0.2048 1.024 0.2048 1.4336 0 0.6144 0.2048 1.024 0.2048 1.6384 0 0.4096 0 0.8192 0.2048 1.2288 0 0.6144 0.2048 1.2288 0.2048 1.8432 0 0.4096 0 0.6144 0.2048 1.024 0 0.6144 0.2048 1.2288 0.2048 1.8432 0 0.2048 0 0.6144 0.2048 0.8192 0.2048 0.6144 0.2048 1.2288 0.4096 2.048 0 0.2048 0 0.4096 0.2048 0.6144 0.2048 0.6144 0.2048 1.4336 0.4096 2.048 0 0.2048 0 0.2048 0 0.4096 0.2048 0.8192 0.2048 1.4336 0.4096 2.048 0 0 0 0.2048 0 0.2048 0.2048 0.8192 0.4096 1.4336 0.4096 2.2528 0 0 0 0 0 0 3.072 12.9024 7.9872 20.2752 14.5408 20.48 2.8672-0.4096 6.7584-4.7104 11.6736-12.0832-0.2048 0-0.2048 0-0.4096 0 39.936-60.2112 139.4688-337.1008 139.4688-337.1008s27.2384 3.4816 54.6816 3.4816 54.6816-3.4816 54.6816-3.4816 0 0 0 0.2048c2.8672 8.192 124.1088 344.6784 150.7328 348.9792 47.3088-1.2288-2.8672-361.6768-23.3472-481.8944 0-0.4096-0.2048-0.8192-0.2048-1.2288-0.2048-1.024-0.4096-2.048-0.4096-2.8672-0.2048-1.024-0.4096-2.048-0.4096-2.8672 0-0.6144-0.2048-1.024-0.2048-1.6384-0.2048-1.2288-0.4096-2.4576-0.6144-3.4816 0-0.4096-0.2048-0.6144-0.2048-1.024-0.2048-1.2288-0.4096-2.4576-0.6144-3.6864 0-0.2048 0-0.4096 0-0.6144-0.2048-1.2288-0.4096-2.4576-0.6144-3.6864L868.352-48.9792C868.352-49.3888 898.048 288.5312 841.1136 649.3888z"  horiz-adv-x="1024" />

    
    <glyph glyph-name="dns1" unicode="&#58908;" d="M64 586.752C148.992 732.544 317.632 832 512 832c194.304 0 362.944-99.456 448-245.248l-77.76 0c-17.152 24.064-36.992 46.656-59.776 67.136-35.584 32.448-76.16 58.432-121.216 77.952 32.832-39.424 60.032-88.768 79.552-145.088L709.76 586.752c-11.392 28.736-25.024 55.232-40.704 79.04C646.4 700.096 619.52 727.808 591.424 745.728c-14.912 9.6-30.208 16.448-45.696 20.48l0-179.456L478.208 586.752 478.208 766.208c-15.424-4.032-30.656-10.88-45.696-20.416C404.48 727.872 377.664 700.16 354.88 665.856 339.2 641.92 325.632 615.488 314.368 586.752L243.072 586.752c19.648 56.32 46.784 105.6 79.552 145.088C277.696 712.32 236.992 686.272 201.472 653.888c-22.72-20.48-42.624-43.072-59.776-67.136L64 586.752zM882.24 181.312c-17.152-24.064-36.992-46.656-59.776-67.136-35.584-32.448-76.16-58.432-121.216-77.952 32.832 39.36 59.968 88.768 79.552 145.088l-71.232 0c-11.328-28.736-24.96-55.168-40.64-79.04-22.72-34.368-49.6-62.016-77.632-80-14.912-9.472-30.272-16.384-45.632-20.352l0 179.52L478.208 181.44l0-179.52c-15.424 4.032-30.656 10.88-45.696 20.352-28.032 17.984-54.848 45.632-77.632 80C339.2 126.144 325.632 152.576 314.24 181.312L243.072 181.312c19.584-56.32 46.72-105.536 79.552-145.088-44.864 19.52-85.568 45.504-121.088 77.952-22.72 20.416-42.624 43.072-59.776 67.136L64 181.312C149.056 35.52 317.632-64 512-64c194.304 0 363.008 99.52 448 245.312L882.24 181.312zM145.536 488.512l120.192 0c71.04 0 103.616-41.536 103.616-103.04 0-59.072-28.864-108.928-101.568-108.928L145.536 276.544 145.536 488.512zM266.112 303.872c57.792 0 68.032 43.392 68.032 81.088 0 37.12-13.568 76.288-74.688 76.288L180.736 461.248l0-157.312L266.112 303.936zM446.784 445.184l-0.64 0 0-168.64-35.2 0L410.944 488.512 451.84 488.512 604.16 319.872l0.704 0L604.864 488.512l35.2 0 0-211.968L599.168 276.544 446.784 445.184zM707.2 346.304c1.024-38.016 40.192-47.808 76.352-47.808 37.184 0 64.064 13.12 64.064 35.968 0 19.328-16.576 27.008-44.096 31.488l-53.824 8c-28.16 3.904-70.4 14.272-70.4 55.488 0 38.912 34.176 64.448 94.912 64.448 47.808 0 97.344-15.424 100.928-66.496l-35.2 0c-2.624 16.32-13.632 39.168-70.4 39.168-25.536 0-55.104-9.792-55.104-34.752 0-13.056 9.6-23.424 38.848-27.904l58.048-8.96c18.624-3.264 71.36-10.688 71.36-54.336 0-53.76-54.144-69.44-101.888-69.44-53.504 0-108.928 16.896-108.928 75.072L707.2 346.24z"  horiz-adv-x="1024" />

    
    <glyph glyph-name="centos" unicode="&#59034;" d="M191.73 709.109h149.050l-65.087-64.95 196.524-196.191v-15.732h-15.751l-196.479 196.198-68.254-68.108v148.782zM191.73 709.109zM686.267 709.109h144.518v-144.302l-65.985 65.888-198.748-198.459h-15.753v15.732l198.748 198.459-62.781 62.683zM686.267 709.109zM550.299 354.268h15.753l196.528-196.234 68.205 68.146v-148.829h-149.011l65.053 64.95-196.528 196.243v15.724zM550.299 354.268zM456.465 354.268h15.751v-15.767l-198.757-198.461 62.784-62.691h-144.514v144.303l65.985-65.843 198.749 198.459zM456.465 354.268zM191.73 520.878l68.254 68.142 157.010-156.782h-225.264v88.641zM191.73 520.878zM416.994 354.268l-159.278-159.097-65.985 65.888v93.209h225.263zM416.994 354.268zM61.634 390.969l102.196 102.047v-88.672h281.061l11.172-11.111-11.172-11.107h-281.061v-93.165l-102.196 102.009zM61.634 390.969zM605.51 432.236l159.289 159.008 65.985-65.839v-93.169h-225.274zM605.51 432.236zM830.785 265.592l-68.205-68.151-157.069 156.829h225.275v-88.677zM830.785 265.592zM566.493 393.231l11.127 11.111h281.106v93.156l102.151-102.004-102.151-102.044v88.672h-281.106l-11.127 11.107zM566.493 393.231zM550.299 299.129l157.015-156.828-65.004-64.95h-92.012v221.778zM550.299 299.129zM500.114 326.99l11.167 11.103 11.118-11.103v-277.498h91.971l-105.357-105.204-105.363 105.204h96.464v277.498zM500.114 326.99zM312.929 140.042l159.29 159.089v-221.778h-96.505l-62.786 62.69zM312.929 140.042zM550.299 486.349l157.015 156.789-65.004 64.955h-92.012v-221.744zM550.299 486.349zM500.114 458.501l11.167-11.151 11.118 11.151v277.453h91.971l-105.357 105.246-105.363-105.246h96.464v-277.453zM500.114 458.501zM312.929 645.401l159.29-159.054v221.744h-96.505l-62.786-62.69zM312.929 645.401z"  horiz-adv-x="1024" />

    
    <glyph glyph-name="windows" unicode="&#59038;" d="M512.819 350.129v-315.447l412.979-67.769v383.216h-412.979zM512.819 350.129zM925.798 419.41v383.21l-412.979-68.847v-314.363h412.979zM925.798 419.41zM443.54 419.41v302.887l-349.111-58.238v-244.65h349.111zM443.54 419.41zM94.428 350.129v-246.818l349.111-57.264v304.082h-349.111zM94.428 350.129z"  horiz-adv-x="1024" />

    
    <glyph glyph-name="weixin" unicode="&#58934;" d="M1243.574857 239.396571c0 177.883429-176.054857 322.852571-373.869714 322.852571-209.444571 0-374.345143-144.969143-374.345143-322.852571 0-178.176 164.937143-322.852571 374.345143-322.852571 43.812571 0 88.027429 11.190857 132.059429 22.345143l120.722286-66.852571-33.097143 111.177143C1177.709714 50.212571 1243.574857 139.081143 1243.574857 239.396571zM748.324571 295.058286c-21.906286 0-44.032 22.016-44.032 44.507429 0 22.198857 22.125714 44.544 44.032 44.544 33.316571 0 55.113143-22.308571 55.113143-44.544C803.437714 317.074286 781.641143 295.058286 748.324571 295.058286zM990.427429 295.058286c-21.796571 0-43.702857 22.016-43.702857 44.507429 0 22.198857 21.942857 44.544 43.702857 44.544 32.987429 0 55.076571-22.308571 55.076571-44.544C1045.504 317.074286 1023.414857 295.058286 990.427429 295.058286zM841.874286 586.130286c14.299429 0 28.342857-1.024 42.349714-2.596571-38.070857 179.236571-227.657143 312.429714-444.086857 312.429714-241.956571 0-440.137143-166.692571-440.137143-378.368 0-122.221714 65.938286-222.537143 176.128-300.361143L132.096 83.419429l153.856 77.970286c55.076571-11.008 99.254857-22.308571 154.185143-22.308571 13.824 0 27.501714 0.694857 41.069714 1.755429-8.557714 29.732571-13.568 60.891429-13.568 93.257143C467.638857 428.434286 632.795429 586.130286 841.874286 586.130286zM605.184 706.779429c33.133714 0 55.113143-22.052571 55.113143-55.515429 0-33.389714-21.979429-55.661714-55.113143-55.661714-32.950857 0-66.084571 22.272-66.084571 55.661714C539.099429 684.763429 572.233143 706.779429 605.184 706.779429zM297.142857 595.602286c-32.950857 0-66.267429 22.272-66.267429 55.661714 0 33.462857 33.28 55.515429 66.267429 55.515429 32.987429 0 54.966857-22.052571 54.966857-55.515429C352.109714 617.910857 330.130286 595.602286 297.142857 595.602286z"  horiz-adv-x="1244" />

    
    <glyph glyph-name="jiankong" unicode="&#59024;" d="M208.825073 102.397391 93.628424 102.397391c-31.852452 0-57.600883-25.803689-57.600883-57.598836l0-115.198695c0-31.851429 25.747407-57.598836 57.600883-57.598836l115.197672 0c31.852452 0 57.600883 25.747407 57.600883 57.598836L266.426979 44.798555C266.425955 76.593701 240.678548 102.397391 208.825073 102.397391zM554.421158 217.596086 439.223486 217.596086c-31.852452 0-57.600883-25.804712-57.600883-57.598836l0-230.398414c0-31.851429 25.747407-57.598836 57.600883-57.598836L554.421158-128c31.852452 0 57.600883 25.747407 57.600883 57.598836L612.022041 159.99725C612.022041 191.791373 586.274634 217.596086 554.421158 217.596086zM900.017244 390.393617 784.819572 390.393617c-31.853475 0-57.600883-25.804712-57.600883-57.598836l0-403.195945c0-31.851429 25.747407-57.598836 57.600883-57.598836l115.197672 0c31.852452 0 57.600883 25.747407 57.600883 57.598836L957.618127 332.794781C957.617104 364.588905 931.869696 390.393617 900.017244 390.393617zM580.744687 407.212678 580.716035 407.242354 987.972459 814.497755 906.525472 896 499.265978 488.692411 377.10266 610.854705 377.131313 610.883357 295.628044 692.387649 51.234895 447.992453 132.73714 366.491231 295.656697 529.409764 499.299747 325.766714Z"  horiz-adv-x="1024" />

    
    <glyph glyph-name="weibo" unicode="&#58943;" d="M0 834.5 0 834.5 0 834.5zM780 319c-11 2-18 5.5-21 9.5-3 4.5-4 8-1.5 12l3 5.5c0.5 0.5 1.5 2 2 3 0.5 1.5 2 4.5 4.5 9 2 4.5 4 9.5 5 14 1 4.5 2 10.5 2.5 17s0.5 13.5-0.5 19.5c-1 6-3 12.5-6.5 20-3.5 7-7.5 13.5-13.5 19.5-10 10-23 16.5-39.5 19.5-16 3-32.5 3-48.5 0.5-16-2.5-31.5-5.5-45.5-9.5-14.5-4-26-7.5-35.5-11.5l-14-6.5c-7-2-13-3.5-18-4.5-4.5-0.5-8.5-0.5-11 0.5-2.5 1-4.5 2-6 3-1.5 1-2 3.5-1.5 7.5 0.5 4 0.5 7.5 1 10 0.5 3 1.5 7.5 2.5 13.5 1.5 6 2.5 11 3 14.5 0 8.5-0.5 16.5-1.5 24-1 7.5-3.5 16-7 25.5s-9 17-15.5 22.5c-7 5.5-15.5 10.5-26 14-10.5 3.5-24 4.5-40.5 3-16.5-1.5-35-5.5-56-13-25-8.5-50.5-21.5-76.5-38-26-17-48-34.5-67-52.5-19-18.5-36.5-36-52-53.5-16-17-28-31-36.5-42l-12-17c-23.5-31-41-61.5-52.5-92.5-11.5-31-17-54-16-70l0-22.5c4.5-34.5 15-65.5 31.5-92.5 17-27.5 37-49.5 60-66 23.5-17 51-31 82.5-43 31.5-12 62-20.5 91-26s59.5-9 92-11.5c53-4.5 108 0 165 12.5 57 12.5 110 34.5 159 65 49 31 84 68 104 111 12 25 18.5 49 19 71 0.5 22-3.5 40.5-11.5 54.5s-18 26.5-30.5 37c-12.5 11-24.5 18.5-35.5 23.5C798.5 314.5 788.5 318 780 319L780 319zM452-15.5c-77.5-3.5-143.5 11.5-197.5 45-54 33.5-81 76.5-81 128 0 51 27 95 80.5 132s120 57 198 61 144-9.5 198-38.5 80.5-69.5 80.5-120.5c0-51.5-27.5-98-82.5-139.5S528-12 452-15.5L452-15.5zM420.5 282.5c-21-2-39.5-7-56-14.5-16.5-7.5-29.5-16-38.5-26-9.5-9.5-17-20-23.5-31-6.5-11-11-22-13.5-33-2.5-11-4-20.5-5-29.5-0.5-9-1-16-1-21l1-8.5 0-4.5c0-2 0.5-6.5 2-13s3.5-12.5 6-18c2.5-5.5 6.5-11.5 12.5-18s12.5-12 20.5-16c47.5-23 91.5-30 132.5-21 41 9 74 29.5 99 62 10 12 16.5 27.5 20 45 3 18 2.5 36-2 54.5-4.5 18.5-12.5 35-24 50-11.5 15-28.5 26.5-51 35C476 284 450 286 420.5 282.5L420.5 282.5zM382 79c-4.5-0.5-8.5-1-12.5-0.5-4 0.5-7.5 1-11 2-3.5 1-6.5 2.5-9.5 4-3 1.5-6 3.5-8 6-2 2.5-4 5-6 7.5-2 2.5-3 5.5-4.5 8.5s-1.5 6.5-1.5 10c0 8 2 15.5 6.5 23 4.5 7.5 10 14 18 19.5 7.5 5.5 16 8.5 25.5 9 6.5 0.5 12.5 0.5 19-0.5 6-1 11.5-3 15.5-5.5 4.5-2.5 8-5.5 11.5-8.5 3-3 5.5-7 7-11.5 1.5-4.5 2-9 2-14 0-8-2.5-15.5-7-22.5-4.5-7-11-13.5-19-18.5C400 83 391.5 80 382 79L382 79zM473.5 156.5c-5-3.5-10-5-15.5-5-5.5 0.5-9 2.5-11.5 7l-2 4.5c-0.5 1.5-1 3-1 4.5l0 4.5c0 2 0.5 4 1 5.5l2 4.5c0.5 1.5 2 2.5 3 3l3 4.5c5.5 4.5 11.5 6 16.5 5.5s9-3.5 11.5-8.5c2-3 3-6 2.5-9.5-0.5-3.5-1.5-7-3-10C478.5 162.5 476 159.5 473.5 156.5L473.5 156.5zM855.5 381.5c4.5 0 8.5 1 12 3 3.5 2 6.5 5 8.5 8 2 3 3.5 6.5 4.5 10 0.5 0.5 1 2 1 3 8.5 82-20 128.5-86 140-19.5 3.5-37.5 4-54 1-5 0-9.5-1.5-13-4-3.5-2.5-6.5-5.5-9-9.5-2.5-4-4-8-4-12.5 0-7 2.5-13.5 7.5-18.5 5-5 11-7.5 18.5-7.5 56 13 86-5 90.5-54 1.5-12 0.5-23.5-2-34.5 0-7 2.5-13.5 7.5-18.5C842 384 848 381.5 855.5 381.5L855.5 381.5zM837 685c-31.5 7-74 5.5-127-4.5-0.5 0-1.5-0.5-2-1l-1-2-1-1c-8-2-14.5-6.5-19.5-13.5s-7.5-14-7.5-22c0-11 3.5-19.5 11-27 7-7 16-11 26-11l3 0c0.5 0 2.5 0.5 5 1 2.5 0.5 5 1.5 8 1.5 3 0.5 6 1 9 2s6 2 8.5 3c2.5 1 7.5 1.5 14.5 1.5 7 0 16-0.5 26.5-1.5 10.5-1 22-4 34.5-8 12.5-4.5 25-9.5 37.5-16 12.5-6.5 25-15.5 37.5-27 12.5-11.5 23.5-24.5 33-40 18.5-42.5 22.5-83 11-122.5 0-0.5 0-1.5-0.5-2-0.5-0.5-1-2.5-1.5-5.5s-1.5-5.5-2-8c-0.5-2.5-1.5-5.5-2-9.5s-1-7.5-1-10c0-6.5 2-12 5.5-16 3.5-4.5 8-7.5 13.5-9 5.5-2 11.5-2.5 19-2.5 20 0 32 12 35.5 36.5 8.5 28 13.5 54.5 14.5 80s-0.5 48-5.5 67c-4.5 19.5-11.5 37.5-21 54.5-9.5 17-20 31-32.5 43-12 12-26 22.5-41 32.5-15 9.5-29.5 17.5-43.5 23C866.5 676.5 852 681.5 837 685L837 685z"  horiz-adv-x="1026" />

    
    <glyph glyph-name="guanlizhongxin" unicode="&#59898;" d="M268.535501 695.602877c-1.433652 11.007705-1.794879 22.288632-4.513804 32.970926-6.567579 25.811876 3.320629 45.36214 22.540366 60.847833 29.427216 23.710005 64.60439 33.617655 101.290941 37.907355 25.710568 3.006474 44.236504-8.607028 55.552224-32.383548 6.070252-12.759605 12.881378-24.710798 23.290449-34.667567 32.66598-31.245631 87.388303-16.420995 106.166995 21.994943 4.486174 9.174963 10.196223 17.934464 16.46602 26.015513 12.252045 15.795754 29.191856 21.790282 48.625464 18.944468 31.473829-4.612041 61.790298-12.972453 87.038332-33.685193 14.81645-12.154831 28.566616-25.240871 32.67826-45.384653 2.533706-12.417821-1.470491-23.686469-5.41943-34.81083-4.422729-12.4608-6.463202-24.865317-5.270027-38.099736 2.65241-29.497824 28.928866-54.55757 58.649771-55.653531 15.886829-0.585331 30.893614 2.279926 45.633317 8.359388 29.342282 12.096503 54.507428 4.157693 73.164347-21.546735 21.516036-29.647227 31.502481-63.647599 35.112706-99.151207 2.494821-24.560372-9.43693-44.239574-36.835953-56.372915-12.342096-5.466502-23.046902-12.627598-32.298614-22.453385-30.496571-32.384571-20.60734-84.58956 19.788695-103.495142 13.767562-6.438643 26.717502-13.878079 36.058241-26.482141 11.860119-16.008602 14.234189-33.919531 10.908444-52.850695-5.336542-30.360472-14.715143-59.157331-35.629475-82.790588-18.784832-21.223371-41.847084-31.114648-70.243831-23.890107-19.916609 5.069459-39.717583 8.788154-60.399625 5.079692-21.896706-3.925403-42.029232-25.982768-43.560098-48.406476-0.985444-14.442944 0.035816-28.412097 6.109138-41.940205 13.793144-30.749328 0.261966-61.98882-24.071232-78.527494-27.858488-18.934235-58.195424-30.148647-91.149976-34.503838-27.211758-3.595898-49.338708 10.797927-62.186318 39.387056-8.43409 18.772552-20.620643 34.092469-39.631626 42.595121-22.281469 9.969049-43.49563 6.472412-62.789045-8.005324-12.256138-9.195429-21.941732-20.719904-27.607778-35.175127-13.234419-33.749662-45.458331-43.154869-73.846892-37.857213-35.281551 6.581905-68.50728 18.23634-96.755648 41.379433-12.824073 10.508331-22.422685 22.730701-25.234731 39.938618-1.910513 11.688203 0.954745 22.189372 4.9088 32.482809 5.064342 13.187347 9.570983 26.075889 8.867972 40.677445-1.163499 24.136723-19.436678 44.782949-43.439348 47.960315-18.782785 2.484587-36.83493-1.098008-54.996568-5.210675-26.253944-5.947456-48.240701 1.701758-64.557318 23.180955-21.355377 28.110221-33.710776 60.33311-36.193317 95.236038-1.995447 28.066219 7.175423 50.870598 35.69906 62.829977 20.596084 8.636704 37.252439 22.387893 47.258327 42.753733 9.603729 19.545148 8.244778 39.341007-5.656837 55.80498-9.355065 11.07729-20.915355 23.158443-33.961486 27.713178-37.547151 13.111622-49.41648 53.086056-41.741683 85.699848 6.821359 28.987195 16.156982 56.624648 36.044938 79.352279 14.793938 16.906042 32.481785 26.324552 56.259328 19.677155 15.685237-4.384867 31.259958-9.741875 48.196699-8.65717 29.832446 1.909489 57.340963 18.365276 59.985186 55.669904 0.411369 5.814426 0.723477 11.638061 1.083681 17.45658C268.125155 695.545572 268.329816 695.574225 268.535501 695.602877L268.535501 695.602877zM293.928844 697.622884c-1.171686-10.934027-1.576915-21.059642-3.463891-30.900777-3.113921-16.247033-7.959276-31.960922-20.726044-43.735084-19.201318-17.71036-41.99137-27.200502-67.99051-25.600051-15.116279 0.930185-30.324656 4.446265-44.910862 8.762571-15.747659 4.65809-26.940582-0.597611-36.199457-12.356422-18.886139-23.981181-29.176506-51.52142-31.269168-81.8164-0.938372-13.58439 4.363378-31.967062 22.874987-38.911218 17.142425-6.431479 31.144324-17.899672 43.732014-31.014364 27.696806-28.857235 30.335912-71.913866 6.531763-103.976096-13.725606-18.48398-30.955013-32.631188-52.175313-41.574884-11.251252-4.740978-18.270109-12.504802-19.812231-24.617677-0.695848-5.474688-0.939395-11.146874-0.358157-16.620539 2.919493-27.449165 13.367449-52.202942 28.54615-74.941829 10.887978-16.310477 25.51-20.668739 44.967144-16.888645 16.521279 3.209088 33.466206 6.735401 50.117444 6.281053 45.8697-1.25969 75.02881-32.845059 75.561953-78.788437 0.190335-16.386202-5.0142-31.235398-11.341303-45.868677-5.946432-13.751189-4.022617-26.043143 6.915503-36.278251 27.973098-26.179242 62.018495-39.046295 99.461269-42.952254 19.119453-1.994424 30.373775 5.66093 38.061874 23.431665 7.211239 16.665565 17.672498 30.759561 31.629371 42.154076 28.889981 23.588231 60.842717 29.017894 94.942349 13.258978 23.535019-10.873652 39.316447-29.953196 49.848315-53.446259 9.205663-20.535709 20.22053-27.843138 39.733956-25.176402 29.405727 4.019547 56.234769 14.760169 79.83221 32.909527 4.094248 3.148713 7.691169 7.329942 10.508331 11.685133 7.739265 11.943007 5.333472 24.099884 0.130983 36.384675-8.769734 20.701484-10.67206 42.315758-4.036943 63.707974 8.864902 28.581965 25.460882 50.004881 56.861032 57.121975 24.919553 5.649674 48.919153 2.62478 72.860425-4.28356 18.027585-5.202489 33.206286 0.171915 45.311998 13.408381 20.823258 22.77061 30.252001 50.633191 33.004695 80.855516 1.356904 14.916734-4.78191 26.928303-17.476023 35.105542-5.311982 3.422959-10.985192 6.330172-16.667611 9.122775-19.747763 9.711176-34.872229 24.140817-43.550888 44.404326-16.864086 39.368636-7.04444 81.126692 26.051329 108.328217 9.660011 7.939833 21.167089 13.859659 32.383548 19.620873 16.699334 8.575306 22.940478 19.425422 19.954471 37.990243-1.089821 6.788613-2.13564 13.637602-3.959172 20.249183-6.514367 23.584138-14.185071 46.706765-31.398104 65.123206-10.177803 10.890025-21.125133 12.570293-35.372625 7.918343-13.744026-4.489244-27.7756-9.296737-42.017976-10.828626-36.096103-3.8814-65.722864 8.629541-85.695754 39.910988-16.839527 26.371624-18.418488 54.577013-7.77815 83.678818 9.18929 25.128307 7.885598 31.367405-11.780301 49.606815-22.478967 20.84884-50.15633 29.560246-79.744205 34.086329-14.70491 2.25025-24.390503-4.500501-32.146141-15.650445-2.403746-3.455705-4.533246-7.188726-6.215562-11.04352-6.848988-15.682167-17.401322-28.281113-30.908964-38.653345-30.871101-23.701818-75.958996-25.047466-107.744933-2.733251-17.135262 12.028964-28.869514 28.427446-37.433564 47.429219-8.350179 18.532075-18.002003 23.50125-38.045501 20.132526-9.122775-1.533936-18.275225-3.278673-27.14115-5.863545-21.485337-6.263657-42.122353-14.538111-58.618049-30.375821-9.241478-8.871041-12.521175-19.304671-9.078773-32.500205C291.747155 721.208045 292.353976 708.884368 293.928844 697.622884L293.928844 697.622884zM708.561259 385.639337c0.8913-107.439988-87.178525-195.127096-197.073424-196.216917-108.037599-1.070378-196.952674 87.110987-197.287295 195.659215-0.331551 107.49013 86.354763 193.874569 195.940624 195.259102C618.568642 581.711967 707.66075 494.289895 708.561259 385.639337L708.561259 385.639337zM510.505461 554.889065c-95.04775 1.11745-171.650405-79.857792-171.267689-170.216753 0.384763-90.480734 77.810157-170.558537 171.878602-170.196287 95.264691 0.364297 172.33909 79.029938 172.059728 170.807201C682.88753 479.328136 605.741499 555.386392 510.505461 554.889065L510.505461 554.889065z"  horiz-adv-x="1024" />

    
    <glyph glyph-name="mac" unicode="&#58913;" d="M849.124134 191.103712c-1.040702-3.157923-17.300015-59.872622-57.250912-118.190843-34.577516-50.305733-70.331835-101.018741-126.801964-101.909018-55.532781-0.976234-73.303516 33.134655-136.707568 33.134655-63.323211 0-83.23061-32.244378-135.712915-34.110889-54.254671-2.220574-96.003518 54.951543-130.712017 105.011682-70.934562 102.549607-125.552507 290.600541-52.30118 416.625816 36.040844 63.055105 100.821243 103.135962 171.364903 104.230899 53.160757 1.004887 103.739712-36.012192 136.028093-36.012192 33.171494 0 94.357018 44.791136 158.90615 38.089503 27.02654-1.151219 102.622262-11.298324 151.328567-81.891102-3.832282-2.607384-90.452081-53.724599-89.487104-157.76107C739.079832 232.724645 847.952448 191.532477 849.124134 191.103712M633.69669 665.250592c29.107945 35.506678 48.235584 84.314291 43.202964 132.785236-41.560558-1.630127-92.196819-27.600615-122.291231-62.896492-26.609031-30.794353-50.062186-80.362282-43.521213-128.270409C557.264926 604.064045 604.745311 631.050676 633.69669 665.250592"  horiz-adv-x="1024" />

    
    <glyph glyph-name="dns4" unicode="&#58911;" d="M265.353861 264.419157 265.353861 448.72101C265.353861 448.72101 261.468596 511.868075 203.232711 511.868075L36.180461 511.868075C19.278052 442.335308 2.85349 320.587605 49.260032 202.547674L203.234664 202.547674C203.232711 202.545721 265.353861 202.545721 265.353861 264.419157L265.353861 264.419157ZM202.58907 262.490188 79.653566 262.490188 79.653566 451.945055 202.58907 451.945055 202.58907 262.490188 202.58907 262.490188ZM577.391199 202.875354 577.434112 202.818788 577.527732 202.875354 638.3733 202.875354 638.3733 512.189895 576.265804 512.189895 576.265804 318.046189 450.732316 510.229713 450.732316 512.189895 388.61898 512.189895 388.61898 202.875354 450.732316 202.875354 450.732316 396.765487 576.265804 204.601477 576.265804 202.875354 577.391199 202.875354 577.391199 202.875354ZM185.538427 583.930558C221.841749 642.289323 273.309658 689.394119 334.5375 721.478675 320.771375 683.505778 305.423455 631.926689 293.674079 570.047393L394.206967 570.047393C404.247761 629.890446 419.34994 695.420947 441.949544 759.8475L436.876478 759.377446C461.604011 764.327633 487.142931 767.048476 513.331333 767.048476 539.927362 767.048476 565.665223 763.744446 590.732136 758.585572 612.867546 695.239547 627.88388 628.944498 637.89348 570.047393L738.371755 570.047393C726.790106 630.374153 711.781566 680.726414 698.268994 718.143431 757.38258 685.799481 806.94492 639.318812 842.08384 582.159569 842.152107 578.416697 844.100589 575.520313 845.183071 570.045459L972.938088 570.045459C898.628703 750.13632 720.946631 877.037037 513.333286 877.037037 305.714062 877.037037 128.039784 750.13632 53.712858 570.047393L181.573196 570.047393C182.173924 574.556786 184.116565 581.324781 185.538427 583.930558L185.538427 583.930558ZM702.175706 48.194674C712.464213 78.410714 720.223023 107.866074 727.133393 137.00352L628.437807 137.00352C612.970913 65.764124 595.37609 18.175621 590.04947 4.875662 565.240036-0.097944 539.609448-2.820741 513.33522-2.820741 489.436634-2.820741 466.273337 0.044449 443.568393 4.189108 441.873484 8.185534 421.957651 56.688792 404.362847 137.005473L305.858408 137.005473C313.227112 106.430559 321.621769 75.49677 332.665097 43.778901 288.522999 67.213293 250.339461 99.235423 218.662552 137.005473L81.999929 137.005473C167.617877-12.09892 328.520439-112.793695 513.33522-112.793695 698.138321-112.793695 859.052563-12.09892 944.664671 137.005473L807.976695 137.005473C778.297022 101.585692 742.976721 71.135611 702.175706 48.194674L702.175706 48.194674ZM1009.139996 388.51127 1009.139996 389.112017 947.012987 389.112017 947.012987 388.51127 824.077483 388.51127 824.077483 450.333999 1003.261402 450.333999C999.914458 473.867871 995.627425 494.692599 991.30332 512.187942L762.607787 512.187942 762.607787 511.556001 761.958286 511.556001 761.958286 325.955186 824.079436 325.955186 824.079436 326.65344 947.01494 326.65344 947.01494 264.731231 762.607787 264.731231 762.607787 202.871448 979.760678 202.871448C999.606291 254.263277 1007.690828 306.267553 1009.00151 354.351464L1009.141931 326.655393 1009.777778 326.655393 1009.777778 388.509317 1009.139996 388.509317 1009.139996 388.51127Z"  horiz-adv-x="1024" />

    
    <glyph glyph-name="user" unicode="&#59003;" d="M917.966-21.332c0-22.47-17.892-40.7-39.914-40.7-22.058 0-39.913 18.23-39.913 40.7l-0.075 0.49h-1.088C818.03 136.825 688.798 259.456 530.154 264.634c-3.413-0.151-6.752-0.562-10.24-0.562-3.45 0-6.79 0.41-10.203 0.525-158.606-5.14-287.84-127.807-306.784-285.437h-1.014l0.076-0.49c0-22.47-17.855-40.7-39.913-40.7s-39.915 18.23-39.915 40.7l-0.374 3.789c0 6.751 2.026 12.904 4.915 18.53 21.082 140.714 111.076 258.242 235.432 312.786C288.42 365.168 239.99 451.485 239.99 549.396c0 157.591 125.334 285.361 279.925 285.361 154.628 0 279.96-127.77 279.96-285.361 0-97.873-48.391-184.153-122.104-235.546 124.843-54.732 215.1-172.863 235.809-314.211 2.437-5.29 4.014-10.992 4.014-17.181l0.373-3.79zM719.823 549.32c0 112.577-89.545 203.81-199.984 203.81-110.402 0-199.945-91.234-199.945-203.81s89.543-203.809 199.945-203.809c110.44 0 199.984 91.232 199.984 203.81z"  horiz-adv-x="1024" />

    
    <glyph glyph-name="tubiao" unicode="&#59163;" d="M896.5 383.5l32 0 0-384-32 0 0 384ZM128.5 255.5l32 0 0-256-32 0 0 256ZM384.5 447.5l32 0 0-448-32 0 0 448ZM640.5 319.5l32 0 0-320-32 0 0 320ZM928 576 928 736 928.333 736 928.333 768 737 768 737 736 876.709 736 639.545 491.511 416.876 703.246 128.966 471.463 149.034 446.537 415.124 660.754 640.455 446.489 896 709.928 896 576Z"  horiz-adv-x="1024" />

    
    <glyph glyph-name="QQ" unicode="&#58902;" d="M135.72096 316.19072c-31.86688-76.7488-37.09952-149.9648-11.43296-163.584 17.63328-9.49248 45.3632 12.032 71.2704 51.44576 10.3424-42.93632 35.64032-81.73568 71.8848-112.9984-38.0672-14.35136-62.87872-37.82144-62.87872-64.34304 0-43.65824 67.25632-78.93504 150.21056-78.93504 74.8032 0 136.832 28.70784 148.26496 66.4064a426.30656 426.30656 0 0 0 17.87904 0c11.43808-37.69856 73.58976-66.4064 148.39296-66.4064 82.944 0 150.21056 35.39456 150.21056 78.93504 0 26.5216-24.81152 49.99168-62.88384 64.34816 36.2496 31.1296 61.66528 70.05696 71.8848 112.99328 25.9072-39.40864 53.51424-60.81536 71.15264-51.45088 25.66144 13.6192 20.55168 86.9632-11.43808 163.58912-25.04704 60.32896-59.1104 104.72448-85.0176 114.58048 0.36864 3.76832 0.60928 7.7824 0.60928 11.55072 0 23.23456-6.31808 44.88192-17.152 62.39744 0.24576 1.33632 0.24576 2.79552 0.24576 4.13696 0 10.7008-2.55488 20.79744-6.8096 29.43488-6.56896 156.7744-106.42432 281.20576-268.07296 281.20576S250.4192 695.0656 243.968 538.28608a67.56864 67.56864 0 0 1-6.8096-29.43488c0-1.3312 0.12288-2.79552 0.12288-4.13184-10.7008-17.51552-17.02912-39.04512-17.02912-62.39744 0-3.8912 0.12288-7.65952 0.4864-11.55584-25.78432-9.85088-59.96544-54.2464-85.0176-114.57536z"  horiz-adv-x="1024" />

    
    <glyph glyph-name="DCM" unicode="&#58894;" d="M512-86.016c-259.2 0-470.016 210.84672-470.016 470.016S252.83072 854.016 512 854.016s470.016-210.84672 470.016-470.016-210.84672-470.016-470.016-470.016z m0 892.032c-232.704 0-422.016-189.312-422.016-422.016S279.296-38.016 512-38.016c232.67328 0 422.016 189.312 422.016 422.016S744.704 806.016 512 806.016zM152.35584 495.93856h85.52448c37.79072 0 66.51904-10.48576 86.17984-31.4624 18.78528-19.88096 28.18048-48.38912 28.18048-85.52448 0-36.92032-9.3952-65.42336-28.18048-85.52448-19.6608-20.97152-48.38912-31.45728-86.17984-31.45728H152.35584V495.93856z m38.33856-32.768v-168.42752h39.97696c29.05088 0 50.35008 6.76352 63.8976 20.31616 13.1072 13.76256 19.6608 35.06176 19.6608 63.89248 0 29.71136-6.5536 51.11808-19.6608 64.22528-13.32736 13.32736-34.62656 19.98848-63.8976 19.98848h-39.97696zM558.01856 478.8992c16.8192-13.54752 27.0848-32.3328 30.80192-56.36096h-37.3504c-3.93728 15.2832-11.25888 26.54208-21.95968 33.75104-10.27072 6.9888-23.70048 10.48576-40.30464 10.48576-24.68864 0-43.14624-8.41216-55.37792-25.23136-11.36128-14.85824-17.03936-35.82976-17.03936-62.91456 0-27.52512 5.57056-48.72192 16.71168-63.56992 12.23168-15.9488 31.1296-23.92064 56.68864-23.92064 16.59904 0 30.25408 4.03968 40.96 12.12416 11.14112 8.7296 19.01056 22.06208 23.59296 39.97696h37.35552c-5.23776-27.52512-17.47968-48.93696-36.70016-64.22528-17.91488-14.41792-39.54176-21.632-64.88064-21.632-38.8864 0-67.9424 12.2368-87.16288 36.70528-16.60416 20.75136-24.90368 48.93184-24.90368 84.54144 0 35.16928 8.6272 63.45728 25.88672 84.86912 19.44064 24.6784 47.9488 37.02272 85.52448 37.02272 27.74016 0.00512 50.46272-7.20384 68.15744-21.62176zM628.14208 495.93856h44.89728l79.62624-183.5008h1.31072l79.29856 183.5008h44.89216v-233.96352h-38.33344V423.1936h-1.31584l-68.80768-161.21856h-33.09568l-68.8128 161.21856h-1.31072v-161.21856h-38.33856V495.93856z"  horiz-adv-x="1024" />

    
    <glyph glyph-name="down2" unicode="&#58918;" d="M153 601.4l351.5-351.5c1.9-1.9 4.5-3.1 7.5-3.1s5.6 1.2 7.6 3.2L871 601.4c13.9 13.9 36.7 13.9 50.6 0 13.9-13.9 13.9-36.7 0-50.6L537.3 166.6c-13.9-13.9-36.7-13.9-50.6 0-0.1 0.1-0.1 0.1-0.1 0.2L102.4 550.9c-13.9 13.9-13.9 36.7 0 50.6 13.9 13.8 36.7 13.8 50.6-0.1zM501.8 254.8c0 0.2-0.1 0.3-0.1 0.5 0-0.2 0-0.3 0.1-0.5zM502.4 253.1c0 0.1-0.1 0.1-0.1 0.2 0-0.1 0-0.1 0.1-0.2zM501.4 257.4v0z"  horiz-adv-x="1024" />

    
    <glyph glyph-name="left" unicode="&#58919;" d="M729.4 25L377.9 376.5c-1.9 1.9-3.1 4.5-3.1 7.5s1.2 5.6 3.2 7.6L729.4 743c13.9 13.9 13.9 36.7 0 50.6-13.9 13.9-36.7 13.9-50.6 0L294.6 409.3c-13.9-13.9-13.9-36.7 0-50.6 0.1-0.1 0.1-0.1 0.2-0.1l384.1-384.1c13.9-13.9 36.7-13.9 50.6 0 13.8 13.8 13.8 36.6-0.1 50.5zM382.8 373.8c0.2 0 0.3-0.1 0.5-0.1-0.2 0-0.3 0-0.5 0.1zM381.1 374.4c0.1 0 0.1-0.1 0.2-0.1-0.1 0-0.1 0-0.2 0.1zM385.4 373.4h-0.1 0.1z"  horiz-adv-x="1024" />

    
    <glyph glyph-name="right" unicode="&#58921;" d="M294.6 25l351.5 351.5c1.9 1.9 3.1 4.5 3.1 7.5s-1.2 5.6-3.2 7.6L294.6 743c-13.9 13.9-13.9 36.7 0 50.6 13.9 13.9 36.7 13.9 50.6 0l384.3-384.3c13.9-13.9 13.9-36.7 0-50.6-0.1-0.1-0.1-0.1-0.2-0.1L345.1-25.6c-13.9-13.9-36.7-13.9-50.6 0-13.8 13.9-13.8 36.7 0.1 50.6zM641.2 373.8c-0.2 0-0.3-0.1-0.5-0.1 0.2 0 0.3 0 0.5 0.1zM642.9 374.4c-0.1 0-0.1-0.1-0.2-0.1 0.1 0 0.1 0 0.2 0.1zM638.6 373.4h0z"  horiz-adv-x="1024" />

    
    <glyph glyph-name="up2" unicode="&#58922;" d="M871 166.6L519.5 518.1c-1.9 1.9-4.5 3.1-7.5 3.1s-5.6-1.2-7.6-3.2L153 166.6c-13.9-13.9-36.7-13.9-50.6 0-13.9 13.9-13.9 36.7 0 50.6l384.3 384.3c13.9 13.9 36.7 13.9 50.6 0 0.1-0.1 0.1-0.1 0.1-0.2l384.1-384.1c13.9-13.9 13.9-36.7 0-50.6-13.8-13.9-36.6-13.9-50.5 0zM522.2 513.2c0-0.2 0.1-0.3 0.1-0.5 0 0.2 0 0.3-0.1 0.5zM521.6 514.9c0-0.1 0.1-0.1 0.1-0.2 0 0.1 0 0.1-0.1 0.2zM522.6 510.6v0.1-0.1z"  horiz-adv-x="1024" />

    
    <glyph glyph-name="mySql" unicode="&#59310;" d="M517.5808 687.46752c-14.19776 1.70496-27.07968-2.56-35.2512-18.76992-13.75744-27.26912 10.4192-57.9328 18.65216-73.31328 5.75488-10.76736 13.32736-23.02976 17.00352-34.84672 2.4576-7.80288 2.23232-15.26272 4.15232-23.45984 4.75136-20.1216 8.33024-41.97376 15.20128-60.84096 3.4304-9.50784 7.22944-19.46624 11.93984-28.18048 2.89792-5.32992 8.54016-8.17664 8.68864-15.94368-6.5792-7.99744-8.2688-21.30432-12.59008-31.84128-19.50208-47.45728-20.34176-108.83584-3.04128-147.20512 5.28896-11.78112 18.10944-37.07392 39.94112-30.08512 19.08224 6.09792 17.53088 31.26272 25.05216 52.57216 1.66912 4.81792 1.30048 8.6016 3.94752 11.67872l-0.1024-0.98816c4.32128-12.4928 8.65792-25.1392 12.99968-37.61664 10.13248-22.5792 29.57824-46.9504 46.57152-63.88224 8.81152-8.77568 15.86176-19.83488 26.99776-28.93824 19.712-15.49312 7.40864-19.8144 150.87104-88.86784 1.65888-1.60256 56.7296-26.3424 85.98016-39.16288 39.98208-17.56672 75.84768-24.192 79.06816-25.75872l0.07168 0.96768c-2.54976 4.3776-2.93888 10.11712-5.248 14.62272l-10.42944 14.1568c-10.01984 17.94048-23.5008 34.05312-38.10816 47.91808-11.63776 11.06432-38.64064 27.27424-42.30144 43.60704-0.27136 0.40448-0.61952 0.73728-0.8704 1.10592 9.0624 0.13312 20.02944 2.4576 28.54912 4.02944 14.30016 2.5344 26.5984 0.34816 41.33888 2.8672 6.66112 1.31584 13.35808 2.55488 20.0192 3.8912l0.4096 3.93728c-6.43072 8.7552-10.56256 19.9168-17.75104 27.98592-18.75968 21.05856-39.36768 42.22976-60.98944 60.38016-12.01152 10.09152-27.24864 17.31584-40.17152 26.1632-4.32128 2.944-12.2624 5.1968-14.85824 9.6512-6.15936 10.5728-8.85248 23.45472-13.2096 35.42528-9.1392 25.2416-17.92 52.49536-25.63072 78.81728-5.23776 17.93536-8.13056 35.38944-15.29856 51.73248-34.33984 78.42816-74.96192 127.80032-140.45184 179.01568-13.91104 10.86976-31.29856 16.34816-49.7408 23.14752-10.09152 1.68448-20.32128 3.38944-30.40768 5.0944-5.91872 3.40992-11.49952 12.28288-16.93184 16.81408-13.46048 11.35104-40.47872 31.2832-64.09216 34.12992h0.02048z m95.91808-79.26272c6.70208-0.52736 10.30144-6.6048 15.31904-11.27424 15.88224-17.97632 4.00896-45.53728-16.31232-54.4256-5.19168 16.34816-8.92928 33.39264-19.58912 46.60736-12.41088 10.09152 3.7888 23.02976 17.41824 19.0208 1.11104 0.17408 2.23232 0.17408 3.2 0.0768h-0.03584v-0.00512zM688.96256 114.95424c-2.4576 2.4064-4.80256 4.72576-8.192 7.37792-9.1392 7.4752-15.79008 15.38048-21.6576 22.3744-3.16928 3.77344-6.24128 7.4752-9.6 10.8032a328.41728 328.41728 0 0 0-12.672 13.50144c-65.12128-28.47744-162.5344-46.60224-271.52896-46.60224-196.096 0-355.0464 58.55232-355.0464 130.78016v-156.94848c0-72.22784 158.94528-130.80576 355.0464-130.80576 191.29856 0 346.81856 55.78752 354.30912 125.57312-17.46944 11.12064-24.30976 17.75104-30.65856 23.94624zM504.99072 236.17024c-15.94368 35.328-19.2768 84.57216-10.40384 130.7648-40.09472-5.79072-83.59936-9.08288-129.27488-9.08288-196.096 0-355.0464 58.55744-355.0464 130.78528v-156.94848c0-72.21248 158.94528-130.80576 355.0464-130.80576 54.72256 0 106.3424 4.7104 152.63744 12.84096-4.66944 6.27712-9.00608 13.6704-12.95872 22.44608zM498.944 481.64352c-5.84704 16.0768-9.56928 33.4336-13.16864 50.20672a876.97408 876.97408 0 0 1-4.10624 18.53952c-1.08544 4.66944-1.66912 9.10336-2.2272 13.50144-0.44544 3.60448-0.7936 7.14752-1.92 10.77248-2.57536 8.25344-7.76704 17.60768-12.76416 26.65472l-4.41856 8.0384c-1.28 2.40128-2.96448 5.1712-4.81792 8.24832-11.68384 19.33312-33.41312 55.3216-15.79008 90.22464 11.66336 23.14752 33.2032 34.38592 58.65472 31.2832 31.3088-3.77856 63.85664-27.8528 80.47616-41.856 3.11808-2.61632 6.42048-6.23616 9.67168-10.01472 1.25952-1.45408 2.93888-3.40992 4.32128-4.80256l31.86176-5.69344 7.168-2.6112c18.048-6.528 36.73088-13.2864 52.58752-25.68704a693.46816 693.46816 0 0 0 35.87072-30.21824V671.75424c0 72.22784-158.9504 130.80576-355.02592 130.80576-196.096 0-355.0464-58.5728-355.0464-130.80576v-104.63744c0-72.20736 158.94528-130.80064 355.0464-130.80064 52.82304 0 102.77376 4.3776 147.80928 11.99104-5.69856 10.55744-10.19392 22.25664-14.1824 33.33632z"  horiz-adv-x="1024" />

    
    <glyph glyph-name="ring" unicode="&#58892;" d="M866.7 88.2h-708.2c-11 0-21.1 6.1-26.1 15.8-5.1 9.7-4.4 21.5 1.9 30.5l89.1 128.1v191.4c0 159.4 129.7 289.2 289.1 289.2 76.4 0 148.8-30.3 203.8-85.4 55-55 85.3-127.4 85.3-203.8v-191.4l89.1-128.1c6.3-9 7-20.8 1.9-30.5-4.9-9.7-14.9-15.8-25.9-15.8zM215 147.2h595.2l-62.2 89.3c-3.4 5-5.3 10.8-5.3 16.9v200.6c0 60.6-24.2 118.2-68.1 162.1s-101.5 68.1-162.1 68.1c-126.9 0-230.1-103.2-230.1-230.2v-200.6c0-6-1.8-11.9-5.3-16.9l-62.1-89.3zM512.6-62.3c-76.5 0-138.7 62.2-138.7 138.7 0 17.5 3.7 34.5 10.4 47.9 2.5 5 7.6 8.2 13.2 8.2h233.1c6.8 0 12.7-4.6 14.3-11.2 4.3-17.1 6.4-31.8 6.4-44.9 0-35.6-13.1-68.6-39.1-98.2-27-27.2-60.3-40.5-99.6-40.5zM407.4 102.9c-2.6-7.9-4-17.1-4-26.6 0-60.2 49-109.2 109.2-109.2 31.6 0 57.2 10.2 78.1 31.1 20.4 23.4 31.1 49.9 31.1 78.1 0 7.9-1 16.6-2.9 26.6h-211.5zM559.8 693c-1 0-1.9 0.1-2.9 0.3-18.9 3.8-33.4 5.6-44.3 5.6-16.3 0-29.9-2.7-44.3-5.6-4.3-0.9-8.8 0.2-12.2 3.1-3.4 2.8-5.4 7-5.4 11.4v62c0 34.7 27.2 62 62 62 13.9 1.5 29.1-3.3 40.9-13.9 13.4-12 21-29.5 21-48.1v-62c0-4.4-2-8.6-5.4-11.4-2.7-2.2-6-3.4-9.4-3.4zM512.6 728.4c9.2 0 19.7-1 32.5-3v44.3c0 10-4.2 19.8-11.2 26.1-3.9 3.5-10.5 7.5-19.6 6.5-20.1-0.1-34.1-14-34.1-32.5v-44.2c9.9 1.6 20.5 2.8 32.4 2.8z"  horiz-adv-x="1024" />

    
    <glyph glyph-name="menu" unicode="&#58886;" d="M128 597.333333h768a42.666667 42.666667 0 0 1 0 85.333334H128a42.666667 42.666667 0 0 1 0-85.333334z m768-170.666666H128a42.666667 42.666667 0 0 1 0-85.333334h768a42.666667 42.666667 0 0 1 0 85.333334z m0-256H128a42.666667 42.666667 0 0 1 0-85.333334h768a42.666667 42.666667 0 0 1 0 85.333334z"  horiz-adv-x="1024" />

    
    <glyph glyph-name="guanlizhongxin1" unicode="&#58990;" d="M934.2 667.1L516.8 493.3 98.4 667.1 515.8 832l418.4-164.9M64 594.8l416.5-177.6V-64c-33.1 15-67.5 30.6-103.2 46.8-34.5 15.4-69 30.7-103.6 45.9-38.5 16.9-77.2 33.8-116.1 50.8-14 6.5-26.9 15.3-38.2 25.9-11.2 10.5-21.2 22.3-29.6 35.1-8.2 12.5-14.6 26.2-19.1 40.5-4.3 13.6-6.5 27.7-6.7 42V594.8m896 0v-369.9c0-16.9-3.2-33.3-9.5-49.3-6.3-15.9-14.5-30.9-24.4-44.9-9.5-13.6-20.6-26-32.9-37.1-12.1-10.7-23.9-19-35.3-24.9-33.7-14.3-69.1-29.3-106-44.9-36.9-15.6-71-29.9-102.2-42.9-35.5-15.3-71.2-30.3-107-44.9V417.2L960 594.8z"  horiz-adv-x="1024" />

    
    <glyph glyph-name="yumingguanli" unicode="&#58942;" d="M677.570564 890.440447a17.037715 17.037715 0 1 1-10.250427-32.500223 487.016873 487.016873 0 1 0-283.120254 2.721865 17.037715 17.037715 0 1 1-9.613394 32.697123A521.208126 521.208126 0 1 1 677.570564 890.440447z m-305.451127-407.700579l-48.460773-190.623185h-21.022061l-56.68428 137.761099-55.595533-137.761099h-21.774917L122.449162 483.550636l24.77476 6.011267 35.662218-148.254756 52.549362 129.502846h21.774917l52.560944-129.143791 37.538567 147.096516z m273.599519 0l-48.460773-190.623185h-21.022061l-56.68428 137.761099-55.595533-137.761099h-21.774917L396.048681 483.550636l24.77476 6.011267 35.662218-148.254756 52.549362 129.502846h21.774917l52.560944-129.143791 37.538567 147.096516z m273.599519 0l-48.460773-190.623185h-21.022061l-56.68428 137.761099-55.595533-137.761099H715.792493L669.6482 483.550636l24.77476 6.011267 35.662218-148.254756 52.549362 129.502846h21.774917l52.560944-129.143791 37.538567 147.096516zM521.208126 33.551123a351.919727 351.919727 0 0 0-309.250155 183.870644 17.373604 17.373604 0 1 0 30.519632 16.609166 317.253595 317.253595 0 0 1 557.449464 0 17.373604 17.373604 0 1 0 30.531214-16.632331A351.919727 351.919727 0 0 0 521.208126 33.551123z m-306.319807 469.087313a17.373604 17.373604 0 0 0-15.891056 24.323046 352.012386 352.012386 0 0 0 639.487623 10.70214 17.373604 17.373604 0 0 0-31.272488-15.057124 317.265178 317.265178 0 0 1-576.37511-9.648141 17.373604 17.373604 0 0 0-15.948969-10.331503z"  horiz-adv-x="1047" />

    
    <glyph glyph-name="loadbalance" unicode="&#59260;" d="M451.2 513.6c-9.6 5.6-18.4 12-26.4 20l-135.2-251.2c10.4-4 20-8.8 28.8-15.2l132.8 246.4zM517.6 536c53.6 0 97.6 44.8 97.6 100s-44 100-97.6 100c-53.6 0-97.6-44.8-97.6-100s44-100 97.6-100zM568 505.6l132.8-240.8c7.2 5.6 14.4 9.6 23.2 13.6l-128.8 241.6c-8.8-5.6-17.6-10.4-27.2-14.4zM241.6 252c-53.6 0-97.6-44.8-97.6-100s44-100 97.6-100 97.6 44.8 97.6 100-43.2 100-97.6 100zM368.8 176c1.6-8 2.4-16 2.4-24.8v-5.6h276.8v5.6c0 8 0.8 16.8 2.4 24.8h-281.6zM780 252c-53.6 0-97.6-44.8-97.6-100s44-100 97.6-100c53.6 0 97.6 44.8 97.6 100s-44 100-97.6 100z"  horiz-adv-x="1024" />

    
    <glyph glyph-name="fuzaijunhengqi" unicode="&#58882;" d="M1002.130286 695.003429C980.260571 820.955429 950.125714 850.944 822.345143 873.325714 741.083429 887.515429 626.322286 895.707429 507.611429 895.707429 389.851429 895.707429 281.014857 887.954286 201.142857 874.057143 75.117714 852.187429 45.129143 821.979429 22.820571 694.345143c-29.622857-169.033143-29.988571-453.485714-1.024-621.202286 21.869714-125.952 52.077714-155.940571 179.858286-178.322286 81.481143-14.262857 196.461714-22.454857 315.465143-22.454857 117.394286 0 226.011429 7.68 305.883429 21.504 125.952 21.942857 156.013714 52.077714 178.249142 179.785143 29.622857 169.106286 29.988571 453.632 0.877715 621.348572m-69.997715-590.555429c-18.285714-104.96-36.571429-123.465143-139.995428-141.385143-71.533714-12.434286-169.398857-19.236571-275.456-19.236571-107.52 0-211.090286 7.314286-284.233143 20.114285-105.033143 18.358857-123.538286 36.717714-141.385143 139.995429-26.185143 151.04-25.746286 407.332571 0.877714 559.616 18.285714 104.96 36.644571 123.465143 139.922286 141.385143 71.753143 12.434286 169.764571 19.309714 276.114286 19.309714 107.227429 0 210.651429-7.314286 283.574857-20.114286 104.96-18.285714 123.465143-36.644571 141.385143-139.922285 26.258286-151.113143 25.892571-407.405714-0.731429-559.762286M775.826286 485.229714a40.740571 40.740571 0 1 1 0 81.481143 40.740571 40.740571 0 0 1 0-81.481143zM501.174857 565.394286c70.948571 5.485714 85.869714 58.221714 87.990857 84.114285-2.633143 88.941714-87.990857 89.380571-87.990857 89.380572-47.104-0.877714-85.869714-35.547429-85.430857-88.064 0.438857-52.589714 46.445714-84.992 85.430857-85.430857z m0 132.754285c43.373714-1.536 46.226286-39.204571 46.006857-48.64-3.730286-39.862857-37.741714-42.276571-46.08-42.057142-41.325714 0.877714-44.617143 44.617143-44.617143 44.617142 2.852571 45.202286 44.617143 46.08 44.617143 46.08z m273.334857-411.355428c-30.061714-0.804571-48.786286-27.574857-48.64-51.2 0.950857-16.603429 13.165714-48.64 51.2-48.64l-1.243428 36.790857s-13.019429 0.438857-13.165715 13.165714c0 0 0.585143 12.141714 13.165715 13.092572 4.315429 0.219429 13.165714-4.315429 13.165714-13.165715 0-3.730286-1.901714-13.165714-13.165714-13.165714l1.316571-36.717714s46.957714 0.950857 48.566857 51.2a49.883429 49.883429 0 0 1-51.2 48.64z m-274.285714-149.796572c-35.986286-1.024-58.368-33.060571-58.221714-61.44 1.170286-19.748571 15.725714-58.148571 61.44-58.148571l-1.609143 44.032s-15.579429 0.585143-15.725714 15.725714c0 0 0.658286 14.628571 15.725714 15.798857 5.12 0.219429 15.725714-5.193143 15.725714-15.798857 0-4.461714-2.194286-15.725714-15.725714-15.725714l1.536-44.032s56.32 1.170286 58.221714 61.366857c0.585143 28.745143-25.380571 59.245714-61.366857 58.221714z m163.547429 169.984l-101.522286 58.514286c2.048 8.484571 1.974857 14.628571 1.974857 14.628572l-6.436571-0.073143h6.436571l-0.073143 3.657143 90.331429 52.004571c18.505143 10.24-2.779429 46.957714-21.211429 36.717714L548.571429 423.643429a58.294857 58.294857 0 0 1-24.356572 14.628571l-0.950857 106.422857c0.365714 25.892571-42.130286 25.892571-42.422857 0l0.585143-105.325714a54.710857 54.710857 0 0 1-27.355429-16.164572l-95.451428 54.857143c-20.626286 12.288-41.837714-24.429714-21.211429-36.717714l99.986286-57.124571a94.354286 94.354286 0 0 1-0.658286-6.729143c0.512-6.144 1.609143-11.776 3.218286-17.042286l-102.765715-59.245714c-18.505143-10.166857 2.706286-46.884571 21.211429-36.644572l107.300571 61.805715c4.608-2.925714 9.581714-5.266286 14.848-7.021715v-125.805714c-0.365714-21.065143 42.130286-21.065143 42.496 0V320.512a64 64 0 0 1 16.603429 9.069714l102.838857-59.245714c18.139429-10.898286 39.424 25.819429 21.211429 36.717714z m-140.288 73.142858c-0.950857-14.482286-10.24-23.990857-22.308572-23.698286-12.8-0.292571-23.405714 12.507429-23.698286 22.381714 1.682286 24.941714 23.698286 23.625143 23.698286 23.625143 20.992 0 22.308571-22.308571 22.308572-22.308571h11.995428l0.146286-0.146286c-11.995429 0-12.141714 0.146286-12.141714 0.146286z m-277.211429 206.262857c0.219429-34.157714 0-40.740571 0-40.740572a34.377143 34.377143 0 0 0 32.768-35.474285c-1.024-24.429714-23.405714-32.841143-32.841143-32.841143-35.986286 3.657143-34.157714 34.157714-34.157714 34.157714 2.340571 33.938286 34.157714 34.157714 34.157714 34.157714v40.740572c-46.811429-2.340571-74.386286-33.353143-74.898286-76.214857-1.024-46.226286 41.252571-74.386286 74.898286-73.581715 75.190857 5.851429 77.312 73.362286 73.581714 88.064-12.361143 63.049143-73.581714 61.732571-73.581714 61.732572z m1.243429-294.326857c-46.518857-3.949714-63.853714-35.254857-64.365715-66.998858a63.780571 63.780571 0 0 1 65.682286-64.365714c62.537143 4.388571 65.170286 63.780571 64.365714 68.315429-4.681143 62.244571-65.682286 63.049143-65.682285 63.049143z m0-89.380572c-24.429714 2.121143-23.625143 25.014857-23.625143 25.014857 3.949714 22.820571 23.625143 22.308571 23.625143 22.308572a24.356571 24.356571 0 0 0 25.014857-20.992c-3.218286-24.210286-17.408-26.550857-25.014857-26.331429z"  horiz-adv-x="1024" />

    
    <glyph glyph-name="yunjiankong" unicode="&#58880;" d="M856.035 516.991c-38.112 145.611-170.258 253.315-327.881 253.315-154.723 0-285.006-103.667-325.809-245.341-108.223-16.778-191.178-110.192-191.178-223.179 0-113.92 84.3-207.229 193.871-222.972h48.467c17.812 0 32.311 14.499 32.311 32.311s-14.499 32.311-32.311 32.311h-48.467c-73.735 15.017-129.247 80.158-129.247 158.348 0 89.271 72.288 161.558 161.558 161.558 6.111 0 12.117-0.414 18.124-1.036 15.637 136.911 131.63 243.373 272.682 243.373 140.95 0 256.94-106.256 272.682-243.062 82.54-7.147 147.37-76.429 147.37-160.834 0-78.19-55.51-143.33-129.247-158.348h-48.467c-17.812 0-32.311-14.499-32.311-32.311s14.499-32.311 32.311-32.311h64.624c101.596 22.267 177.714 114.747 177.714 222.972 0 100.663-65.866 185.999-156.795 215.205zM718.425 337.35c0 0.161 0.001 0.353 0.001 0.545 0 108.29-87.786 196.076-196.076 196.076-0.383 0-0.766-0.001-1.148-0.003-0.269 0.002-0.654 0.003-1.041 0.003-108.284 0-196.065-87.781-196.065-196.065 0-0.195 0-0.389 0.001-0.585 0-85.54 54.812-158.357 131.453-185.655-41.965-14.545-69.383-41.904-69.383-72.848h264.697c0 30.973-25.537 58.302-65.68 72.848 78.526 27.268 133.244 100.084 133.244 185.686zM524.933 191.69399999999996c-60.605 0-111.396 50.693-111.396 111.071s50.791 111.039 111.396 111.039c0.067 0 0.148 0 0.228 0 61.35 0 111.094-49.698 111.169-111.033-0.075-61.366-49.833-111.079-111.204-111.079-0.067 0-0.135 0-0.203 0zM521.261 348.251c-27.391 0-51.075-23.685-51.075-50.954 0-29.121 23.685-50.955 51.075-50.955 28.141 0 50.954 22.813 50.954 50.955s-22.813 50.954-50.954 50.954z"  horiz-adv-x="1024" />

    
    <glyph glyph-name="devops--" unicode="&#58926;" d="M706.351458-54.305661c-61.301312-27.237085-126.702996-41.044561-194.371883-41.04456-99.649739 0-194.606774 30.137472-275.521443 87.144373 20.272071 33.747636 15.809151 78.244066-13.414289 107.084533a86.792037 86.792037 0 0 1-61.362589 25.194559 86.715443 86.715443 0 0 1-62.148961-25.970719c-33.829337-34.273587-33.477002-89.677105 0.791479-123.501336a86.792037 86.792037 0 0 1 61.362589-25.194559c19.403997 0 37.766306 6.362469 52.901424 17.953804 87.113735-62.327682 189.684286-95.309371 297.402002-95.309371 72.264571 0 142.108749 14.757251 207.607452 43.847928a16.30957 16.30957 0 0 1 8.28755 21.518011 16.340208 16.340208 0 0 1-21.533331 8.277337zM123.225595-2.195715c-21.472055 21.20142-21.696733 55.91415-0.495312 77.391311a54.36183 54.36183 0 0 0 38.950971 16.284039 54.377149 54.377149 0 0 0 38.445446-15.793833c21.472055-21.20142 21.696733-55.91415 0.495313-77.391311a54.36183 54.36183 0 0 0-38.950971-16.284039 54.382256 54.382256 0 0 0-38.445447 15.793833z m900.733554 386.21614c0 71.79479-14.568317 141.235569-43.311764 206.392149a16.314677 16.314677 0 0 1-21.49248 8.338613 16.289145 16.289145 0 0 1-8.343719-21.472055l0.010213-0.020425c26.889855-60.989827 40.533929-126.003431 40.533929-193.238282 0-98.602944-29.463438-192.599992-85.290781-272.942753a86.70523 86.70523 0 0 1-45.716839 13.000678 86.715443 86.715443 0 0 1-62.148961-25.970718c-33.829337-34.273587-33.482108-89.682212 0.781267-123.506443a86.817569 86.817569 0 0 1 61.362588-25.189452 86.756293 86.756293 0 0 1 62.143854 25.970718 86.725655 86.725655 0 0 1 25.184346 61.91407 86.572466 86.572466 0 0 1-17.392109 51.60442c61.270675 86.60821 93.680456 188.326006 93.680456 295.11948z m-124.680895-385.731041a54.336299 54.336299 0 0 0-38.940758-16.284038 54.356724 54.356724 0 0 0-38.445447 15.793832c-21.472055 21.20142-21.696733 55.91415-0.490206 77.391311a54.341405 54.341405 0 0 0 38.950971 16.284039 54.377149 54.377149 0 0 0 38.445447-15.793832 54.331192 54.331192 0 0 0 16.273826-38.588423 54.382256 54.382256 0 0 0-15.793833-38.802889zM323.822077 825.068177c59.539634 25.429449 122.847728 38.328001 188.152391 38.328001 99.139107 0 193.554873-29.759604 274.163163-86.138429a86.725655 86.725655 0 0 1-13.138549-46.51853 86.751187 86.751187 0 0 1 25.965613-61.587266 86.817569 86.817569 0 0 1 61.362588-25.189453 86.756293 86.756293 0 0 1 62.143854 25.970719 86.684805 86.684805 0 0 1 25.184346 61.91407 86.740974 86.740974 0 0 1-25.965612 61.587266 86.792037 86.792037 0 0 1-61.352375 25.189453 86.521403 86.521403 0 0 1-51.936331-17.228707C721.496789 863.278733 619.32453 896 511.974468 896 442.237523 896 374.624806 882.223162 311.010332 855.047353a16.299358 16.299358 0 1 1 12.811745-29.979176zM898.782942 770.23146a54.315873 54.315873 0 0 0 16.273826-38.598636 54.341405 54.341405 0 0 0-15.788726-38.807995 54.326086 54.326086 0 0 0-38.940759-16.273826 54.372043 54.372043 0 0 0-38.445446 15.788727 54.331192 54.331192 0 0 0-16.273826 38.588423 54.336299 54.336299 0 0 0 15.788726 38.797781 54.331192 54.331192 0 0 0 38.950971 16.273827 54.26481 54.26481 0 0 0 38.435234-15.768301zM32.603822 384.020425c0 98.235289 29.264292 191.946384 84.718873 272.115531a86.735868 86.735868 0 0 1 44.348347-12.178562 86.70523 86.70523 0 0 1 62.14896 25.970719c33.829337 34.26848 33.477002 89.666893-0.791478 123.506442a86.792037 86.792037 0 0 1-61.352376 25.189453 86.715443 86.715443 0 0 1-62.148961-25.970719c-31.092352-31.490645-33.231899-80.787011-6.786293-114.830813C32.077871 591.479794 0 490.231779 0 384.020425c0-62.731081 11.223681-124.022181 33.349344-182.147365a16.299358 16.299358 0 1 1 30.474488 11.601548c-20.71632 54.418-31.22001 111.792556-31.22001 170.545817z m90.131567 385.720828a54.341405 54.341405 0 0 0 38.950972 16.273827c14.48151 0 28.135796-5.606734 38.445446-15.778514 21.466949-21.20142 21.696733-55.924363 0.495312-77.401524a54.341405 54.341405 0 0 0-38.950971-16.273826 54.351618 54.351618 0 0 0-35.310169 12.97004 16.360634 16.360634 0 0 1-2.864643 2.803367c-0.188934 0.137871-0.398293 0.219572-0.592332 0.352336-21.140144 21.237164-21.262696 55.694579-0.173615 77.054294z m389.244186-90.029441c-163.039534 0-295.686281-132.646747-295.686281-295.68628s132.646747-295.686281 295.686281-295.686281 295.691387 132.646747 295.691387 295.686281-132.651853 295.686281-295.691387 295.68628z m0-32.608928c91.714525 0 172.573024-47.202777 219.673674-118.563529L596.407388 447.103842a106.272629 106.272629 0 0 1-10.30965 11.989628 104.883712 104.883712 0 0 1-74.12327 30.428531c-28.431962 0-55.09714-11.136873-75.067938-31.378306a105.619021 105.619021 0 0 1-9.359875-11.055172l-135.250967 81.445725c47.110863 71.365859 127.969362 118.568636 219.683887 118.568636z m0-335.975106a72.468824 72.468824 0 0 0-51.21634 21.027805c-28.600471 28.237922-28.891531 74.480712-0.658715 103.081182a72.37691 72.37691 0 0 0 51.875055 21.676308c19.296765 0 37.480353-7.465433 51.21634-21.022699a72.427973 72.427973 0 0 0 21.681414-51.41038 72.356485 72.356485 0 0 0-21.027806-51.670803 72.341166 72.341166 0 0 0-51.869948-21.681413z m-263.082459 72.892647A261.356525 261.356525 0 0 0 276.052499 500.260582l136.267124-82.058484c-12.663661-37.122911-4.187178-79.898512 25.541788-109.254717a104.679459 104.679459 0 0 1 57.818806-29.054933v-158.397893c-137.497746 8.450951-246.783101 122.939642-246.783101 262.52587z m279.386923-262.52587v158.397893a104.56712 104.56712 0 0 1 58.773686 30.004708 104.771373 104.771373 0 0 1 30.418319 74.792197 105.491363 105.491363 0 0 1-5.759923 33.563809l136.195635 82.00742a261.509714 261.509714 0 0 0 27.155384-116.240157c-0.005106-139.586229-109.290462-254.074919-246.783101-262.52587z"  horiz-adv-x="1026" />

    
    <glyph glyph-name="rongqifuwuContainerServi" unicode="&#59115;" d="M215.552 211.456l133.12-76.288v153.088l-132.608 77.824zM513.024 194.048l-2.048-1.024-131.072 76.8v-152.064l131.584-75.776v-0.512h1.024v0.512l131.584 75.776v153.088zM807.424 403.968v152.064l-132.608 76.288-131.584-76.8 131.584-76.288 0.512-154.624zM807.936 366.592l-132.608-77.824v-153.6l133.12 76.288zM379.904 460.288v0-154.624l131.072-76.8 133.12 77.824v154.624l-131.584 76.288zM348.16 633.344l-132.096-77.824v-153.6l132.608-77.824 0.512 154.112 132.608 77.312zM644.096 650.24l-133.12 77.312-132.096-76.8 133.632-77.312zM659.968 704.512l203.264-117.248v-405.504l-52.224-30.208 24.064-39.936 74.752 43.008v459.264l-224.768 130.048zM160.768 346.624v240.64l351.232 202.752 81.92-47.104 25.088 38.912-107.008 61.952-397.824-229.888v-267.264zM745.472 113.664l-233.472-134.656-351.232 202.752v89.088h-46.592v-116.224l397.824-229.376 257.024 148.48z"  horiz-adv-x="1024" />

    
    <glyph glyph-name="yunshujukuMemcache" unicode="&#59756;" d="M993.2 426.2L832 488V701.4c0 19.7-12.4 37.7-30.8 44.8L546.5 844.3c-22.2 8.6-46.7 8.6-69 0l-254.8-98.1c-18.4-7.1-30.7-25.1-30.7-44.8V488L30.8 426.2C12.4 419.2 0 401.1 0 381.4v-223.3c0-26.3 15.8-49.6 40.2-59.4l436.1-174.4c11.5-4.6 23.6-6.9 35.7-6.9s24.2 2.3 35.7 6.9l436.1 174.4c24.4 9.8 40.2 33.1 40.2 59.4V381.4c0 19.7-12.4 37.8-30.8 44.8zM477.8 570c11-4.2 22.6-6.3 34.2-6.3s23.2 2.1 34.2 6.3L768 654.6v-158.1l-244.7-92.6c-7.3-2.8-15.3-2.8-22.7 0L256 496.5V654.6L477.8 570z m0.2-226c11-4.1 22.5-6.2 34-6.2s23 2.1 34 6.2l242.9 91.9 113.5-43.5-379-144.6c-7.4-2.8-15.5-2.8-22.8 0l-379 144.6 113.5 43.5L478 344z m22.5 440.5c7.4 2.9 15.6 2.9 23 0l201.9-77.7-202-77c-7.4-2.8-15.5-2.8-22.8 0l-202 77 201.9 77.7z m23.4-800.9c-7.7-3.1-16.1-3.1-23.8 0L64 158.1V346l413.8-157.8c11-4.2 22.6-6.3 34.2-6.3s23.2 2.1 34.2 6.3L960 346v-187.9L523.9-16.4z"  horiz-adv-x="1024" />

    
    <glyph glyph-name="yumingguanli1" unicode="&#58991;" d="M659.968 526.336H500.224v-143.36h171.52c-0.512 53.76-5.12 101.376-11.776 143.36zM384.512-4.608c28.16-7.68 56.832-12.288 87.04-13.312v200.192H316.928c17.92-90.624 45.568-151.552 67.584-186.88zM145.408 182.272c44.544-80.384 116.224-143.36 203.264-175.616-20.48 36.352-45.056 93.696-60.928 175.616H145.408zM271.36 354.304H97.28c2.048-51.2 14.336-99.328 34.304-143.36h151.552c-6.656 41.984-11.264 89.088-11.776 143.36zM283.136 526.336H131.072c-19.968-44.032-31.232-92.16-33.28-143.36H271.36c0.512 53.76 4.608 101.376 11.776 143.36zM348.16 730.112C261.12 697.856 189.44 634.88 145.408 555.008h142.336c15.872 80.896 39.936 138.24 60.416 175.104zM471.552 555.008v199.68c-30.208-1.024-59.904-5.632-88.064-13.312-21.504-35.84-49.664-96.768-67.072-186.368h155.136zM299.52 382.976H471.04v143.36H311.808c-7.168-41.984-11.264-89.6-12.288-143.36zM311.808 210.944h159.744v143.36H300.032c0.512-54.272 5.12-101.376 11.776-143.36zM588.288 740.864c-28.16 8.192-57.856 12.8-88.576 14.336v-200.192H655.36c-17.92 89.6-45.568 149.504-67.072 185.856zM822.272 555.008c-43.52 78.848-113.152 141.312-198.144 174.08 20.48-36.864 44.032-93.696 59.904-174.08h138.24zM700.416 382.976H870.4c-2.048 51.2-13.824 99.328-33.792 143.36h-147.968c6.656-41.984 11.264-89.6 11.776-143.36zM843.776 186.368c6.656 0 12.288-5.632 12.288-12.288v-24.064c0-6.656-5.632-12.288-12.288-12.288H829.44c-6.656 0-13.824-5.12-15.872-11.776l-8.192-20.48c-3.072-5.632-2.048-14.336 3.072-19.456l10.24-10.24c4.608-4.608 4.608-12.288 0-17.408l-17.408-16.896c-4.608-4.608-12.288-4.608-16.896 0l-10.24 10.24c-4.608 4.608-13.312 6.144-19.456 2.56l-20.48-8.192c-6.144-2.048-11.776-9.216-11.776-15.872v-14.336c0-6.656-5.632-12.288-12.288-12.288H686.08c-6.656 0-12.288 5.632-12.288 12.288v14.336c0 6.656-5.12 13.824-11.776 15.872l-20.48 8.192c-5.632 3.072-14.336 2.048-18.944-2.56l-10.24-10.24c-4.608-4.608-12.288-4.608-16.896 0l-17.408 16.896c-4.608 4.608-4.608 12.288 0 17.408l10.24 10.24c4.608 4.608 6.144 13.312 3.072 19.456l-8.192 20.48c-2.048 6.144-9.216 11.776-15.872 11.776H552.96c-6.656 0-12.288 5.632-12.288 12.288V174.08c0 6.656 5.632 12.288 12.288 12.288h14.336c6.656 0 13.824 5.12 15.872 11.776l8.192 20.48c3.072 5.632 2.048 14.336-3.072 19.456l-10.24 10.24c-4.608 4.608-4.608 12.288 0 16.896l16.896 16.896c4.608 4.608 12.288 4.608 16.896 0l10.24-10.24c4.608-4.608 13.312-6.144 19.456-3.072l20.48 8.192c6.144 2.048 11.776 9.216 11.776 15.872V307.2c0 6.656 5.632 12.288 12.288 12.288h24.064c6.656 0 12.288-5.632 12.288-12.288v-14.336c0-6.656 5.12-13.824 11.776-15.872l20.48-8.192c5.632-3.072 14.336-2.048 19.456 3.072l10.24 10.24c4.608 4.608 12.288 4.608 16.896 0l17.408-16.896c4.608-4.608 4.608-12.288 0-17.408l-10.24-10.24c-4.608-4.608-6.144-13.312-3.072-19.456l8.192-20.48c2.048-6.144 9.216-11.776 15.872-11.776l14.336 0.512z m-84.992-24.576c0 33.28-27.136 60.416-60.416 60.416-33.28 0-60.416-27.136-60.416-60.416 0-33.28 27.136-60.416 60.416-60.416 33.28 0 60.416 27.136 60.416 60.416zM617.472 354.304H500.224v-114.176c22.016 52.224 64.512 93.696 117.248 114.176zM860.16 284.672c5.12 22.528 8.704 45.568 9.728 69.12h-100.864c36.352-13.824 68.096-37.888 91.136-69.12zM500.224 79.872v-97.28c23.04 1.024 45.568 4.608 67.584 9.216-30.208 22.528-53.76 52.736-67.584 88.064z"  horiz-adv-x="1024" />

    
    <glyph glyph-name="mysql" unicode="&#58884;" d="M727.808 558.144l-5.888 12.288c-2.56 3.584-6.208 6.336-8.256 10.496h-0.576v0.576a42.24 42.24 0 0 0 10.624 1.152c2.112-2.048 5.376-3.392 7.04-5.824 1.28-1.792 1.472-3.712 2.944-5.248 0-6.208-1.664-10.304-5.312-12.864l-0.576-0.576z m263.808-263.04c-9.728 6.144-21.056 9.664-31.232 15.808-5.696 3.456-11.2 7.68-16.512 11.712a64.512 64.512 0 0 0-13.568 15.808c-1.664 2.688-1.984 5.952-4.096 8.192 0.64 4.8 6.72 4.8 10.624 6.4 13.504 5.696 29.376 7.616 50.048 7.04-0.64 5.248-13.504 11.712-17.664 14.592-8.384 5.824-17.024 12.224-25.92 17.536-4.672 2.752-12.736 4.928-17.664 6.976-7.04 2.944-22.528 5.824-26.496 11.136-7.616 10.112-12.864 22.336-18.24 34.496-5.376 12.16-12.224 24.96-17.664 37.44-2.688 6.144-3.968 11.712-7.04 17.536a228.992 228.992 0 0 1-80.704 87.68 152.576 152.576 0 0 1-37.12 17.536c-7.744 2.304-17.024 1.024-25.344 2.944h-5.312c-4.608 1.344-8.512 6.208-12.352 8.768a144.704 144.704 0 0 1-25.344 12.864c-3.584 1.472-13.056 4.928-16.512 2.368-2.048-0.64-2.88-1.472-3.52-3.52-1.984-3.008-0.192-7.616 1.152-10.496 3.776-8.192 9.216-13.12 14.144-19.904 4.416-6.08 9.792-13.056 12.928-19.904 6.656-14.336 9.6-30.208 15.872-44.416 2.432-5.44 5.952-11.648 9.408-16.384 2.816-3.776 7.872-6.72 9.408-11.712 3.2-4.992-4.736-22.08-6.464-27.456a110.08 110.08 0 0 1 2.368-68.416c3.072-7.168 5.952-15.552 14.144-17.536 0.576 0.448 0.128 0.192 1.152 0.576 1.728 14.016 2.368 27.52 7.04 38.592 2.944 6.912 8.576 11.648 12.352 17.536 2.816-1.6 2.752-6.272 4.096-9.344 3.456-8 7.104-16.704 11.2-24.576 8.64-16.448 18.112-32.32 28.864-46.784 3.776-5.12 8.896-10.688 13.504-15.232 1.984-1.92 4.352-2.88 5.888-5.248h0.576v-0.576c-7.936 2.688-12.736 10.624-18.816 15.168A144.512 144.512 0 0 0 755.2 396.8l-10.624 21.056v0.576c-1.472-1.984-1.024-4.096-1.792-7.04-3.008-12.864-0.384-27.392-12.096-32.128-13.312-5.376-22.976 8.64-27.072 15.168-13.376 21.312-16.832 57.152-7.68 85.952 2.048 6.4 2.24 14.208 5.888 19.264-0.576 4.544-4.288 5.824-6.464 8.768a125.568 125.568 0 0 0-9.408 15.808c-5.504 10.56-9.28 23.04-13.568 34.496-1.728 4.672-2.112 9.024-4.16 13.44-3.072 6.72-8.64 13.376-12.928 19.264-6.144 8.512-23.36 24.832-16.448 41.536 10.944 26.496 48.832 6.336 63.616-2.944 3.712-2.304 7.808-7.168 11.776-8.768l19.456-1.152c12.096-2.816 23.488-4.992 32.96-10.496 44.608-25.92 73.344-52.224 100.096-95.872 5.568-9.088 8.512-19.072 12.928-29.248 6.592-15.04 13.632-29.824 21.184-44.416 3.52-6.72 6.016-14.08 10.624-19.904 1.92-2.432 7.104-3.2 9.984-4.672 8.704-4.352 18.88-7.68 27.072-12.864 14.848-9.28 29.184-20.416 42.432-31.552 5.056-4.288 8.32-10.496 12.928-15.168v-2.368l-12.352-3.52c-9.152-2.368-17.024-1.728-25.92-4.096-5.248-1.408-11.968-3.456-17.664-4.096l0.576-0.576c3.328-9.28 21.376-17.024 29.44-22.784 10.112-7.168 19.584-15.872 27.072-25.728l7.68-7.616c1.728-2.496 2.24-5.76 4.096-8.192v-0.576c-3.584 1.28-5.504 4.416-8.256 6.464-5.504 4.096-11.2 8.64-16.96 12.288z m-320.768 27.584h63.936c3.264 0 6.144-0.192 9.408-0.64 28.224-3.84 42.56-16.128 42.56-36.288v-79.488c0-16.384-6.08-25.152-20.032-30.848l33.216-29.76h-39.104l-26.816 24.064-27.008-1.728h-36.032a73.472 73.472 0 0 0-19.776 2.816c-21.44 5.76-31.808 16.96-31.808 35.456V285.76c0 20.224 14.272 32.448 42.496 36.288a59.072 59.072 0 0 0 8.96 0.64z m-15.232-114.496c0-1.088 0.32-2.176 0.64-3.456 1.92-9.216 10.688-14.4 24-14.4h30.592l-28.096 25.216h39.104l24.512-21.952a15.744 15.744 0 0 1 8.512 10.752c0.32 1.088 0.32 2.176 0.32 3.2V283.84000000000003c0 0.832 0 1.92-0.32 3.008-1.92 8.576-10.688 13.568-23.68 13.568h-51.008c-14.912 0-24.64-6.464-24.64-16.576v-75.648h0.064zM499.584 300.48c-12.032-1.088-15.616-3.008-17.216-9.856-0.32-1.088-0.32-1.92-0.32-2.816v-15.232c0-1.088 0-1.92 0.32-3.008 1.6-9.024 8.128-13.056 21.696-13.056h40.832c10.048 0 20.416-1.728 28.864-4.928 15.872-6.016 24-15.04 24-24.64v-24.448c0-11.776-7.104-20.8-21.696-27.456a75.008 75.008 0 0 0-31.104-6.464H448.064v22.272h92.992c1.28 0 2.304 0.192 3.584 0.192a24.384 24.384 0 0 1 14.272 4.736c3.264 2.56 4.864 5.568 4.864 7.936v19.52a7.872 7.872 0 0 1-2.56 6.016c-3.264 3.84-7.808 5.76-18.496 6.656-1.024 0.256-2.368 0.256-3.648 0.256h-35.008c-3.264 0-6.464 0.256-9.728 0.448-28.864 3.008-46.016 15.872-46.016 30.848v19.52c0 17.152 8.768 27.008 28.864 33.216a91.52 91.52 0 0 0 27.2 2.816H599.04v-22.272H502.784c-0.96-0.064-2.24-0.256-3.2-0.256z m-130.816-178.624H262.336v22.528h106.56c21.696 2.304 19.136 12.992 19.136 16.576v8.768H316.416c-33.344 0.32-54.528 14.72-54.784 31.36 0 1.536 0.704 74.304 0 75.072h33.664v-72.768c-0.32-3.968 1.28-13.248 19.712-13.504 9.408-0.128 72.704 0 73.28 0V276.48h33.792c0.192 0 0-118.144 0-118.656 0.192-29.12-36.48-35.456-53.312-35.968zM199.872 300.672l-52.16-115.136c-6.144-13.952-14.272-18.88-30.784-18.88s-24.96 4.928-31.104 18.88L33.728 300.672v-132.032H0v131.84c0 12.864 5.184 19.072 15.872 22.272 25.6 7.936 43.072 1.088 50.496-16.064l49.6-113.6 51.2 113.6c7.744 17.152 24.96 24 50.56 16.064 10.688-3.2 15.872-9.408 15.872-22.272v-131.84h-33.728V300.672z m641.728-92.992c0-11.776 7.424-16.704 27.2-16.704h88.448v-22.272h-87.808a164.864 164.864 0 0 0-9.728 0.448c-34.688 2.56-51.84 15.424-51.84 38.4V323.00800000000004h33.728v-115.328z m156.352 8.512c13.12 0 24.832-9.92 24.832-24.64s-11.712-24.64-24.832-24.64a24.384 24.384 0 0 0-24.832 24.64c0 14.72 11.712 24.64 24.832 24.64z m0-44.16a19.2 19.2 0 0 1 19.264 19.52 19.2 19.2 0 0 1-19.264 19.52 19.008 19.008 0 0 1-19.264-19.52c0-11.136 8.448-19.52 19.264-19.52z m11.776 25.536c0-5.12-3.328-7.232-7.68-7.68l8.128-12.352h-5.568l-7.424 12.16h-4.416v-12.16h-4.736v28.096h11.072c6.976 0 10.624-2.368 10.624-8.064z m-16.96 4.096v-8.128h5.12c3.584 0 6.72 0.32 6.72 4.288 0 3.264-3.456 3.84-6.272 3.84h-5.568z"  horiz-adv-x="1024" />

    
    <glyph glyph-name="msg" unicode="&#58883;" d="M423.424 803.84C284.16 778.752 163.84 695.808 105.472 583.6800000000001c-31.232-59.392-41.472-102.4-40.96-168.96 1.024-102.912 32.768-175.104 112.64-255.488l48.128-47.616 1.024-96.768 1.536-96.768 91.648 54.784 91.648 55.296h92.672c86.016 0.512 95.744 1.536 138.752 14.336 92.672 28.672 148.992 62.464 209.92 127.488 41.984 44.544 65.024 81.408 82.432 131.584 62.464 179.712-23.04 367.104-209.92 458.752-69.12 34.304-114.176 44.544-202.752 46.592-40.96 0.512-85.504-0.512-98.816-3.072z m193.536-68.608c16.896-4.608 52.224-18.944 78.848-31.744 39.424-19.456 56.32-31.744 90.112-65.536 70.656-70.144 96.256-129.536 96.256-220.672s-25.6-150.528-95.744-220.16c-46.08-45.568-95.232-74.752-161.792-95.232-32.256-10.24-49.664-12.288-107.52-12.288-37.888 0-76.288 1.536-85.504 3.584-13.824 3.072-24.064-1.024-79.36-34.304L289.28 20.480000000000018l-1.536 66.56-1.536 66.048-16.896 10.752c-24.576 14.848-77.312 72.192-95.232 103.936-28.672 50.176-38.4 87.04-38.4 149.504 0 58.88 6.656 87.04 30.72 135.68 46.08 91.648 143.872 162.816 258.56 186.88 42.496 9.216 149.504 6.656 192-4.608zM263.68 471.552c-23.04-10.24-33.28-27.136-33.28-54.784 0-26.112 27.136-53.248 53.248-53.248 26.624 0 46.08 11.776 56.832 34.304 8.192 16.896 8.192 20.992 2.048 39.424-12.8 35.328-45.056 49.664-78.848 34.304zM467.456 458.24c-16.896-16.896-17.92-19.968-15.36-41.984 6.656-59.904 86.528-73.216 109.568-18.432 16.384 40.448-9.216 78.336-53.248 78.336-19.456 0-25.6-2.56-40.96-17.92zM698.368 466.944c-15.36-12.288-22.528-28.16-22.528-49.664 0-26.624 27.136-53.76 53.248-53.76 26.624 0 46.08 11.776 56.832 33.792 7.168 15.872 7.68 22.016 3.072 38.4-8.192 27.136-27.136 40.448-56.32 40.448-14.336 0-27.648-3.584-34.304-9.216z"  horiz-adv-x="1024" />

    
    <glyph glyph-name="tubiaozhexiantu" unicode="&#58887;" d="M529.7951 247.85720000000003v-223.253504c0-3.9311 1.5002-7.8623 4.4995-10.8605s6.9304-4.4995 10.8605-4.4995h112.914432c3.9311 0 7.8623 1.5002 10.8605 4.4995s4.4995 6.9304 4.4995 10.8605V322.12070400000005l-114.8078-98.8303L529.7951 247.85720000000003zM47.2832 24.602600000000052c0-3.9311 1.4991-7.8623 4.4995-10.8605 2.9993-2.9993 6.9304-4.4995 10.8605-4.4995h112.899072c3.9311 0 7.8623 1.5002 10.8605 4.4995 2.9993 2.9993 4.4995 6.9304 4.4995 10.8605V252.350464L47.2832 133.88289999999995V24.602623999999878zM288.51 332.90239999999994v-308.297728c0-3.9311 1.4991-7.8623 4.4995-10.8605 2.9993-2.9993 6.9304-4.4995 10.8605-4.4995H416.79872c3.9311 0 7.8623 1.5002 10.8605 4.4995 2.9993 2.9993 4.4995 6.9304 4.4995 10.8605V330.97625600000003l-71.7804 61.1185L288.51 332.90239999999994zM771.0505 24.602600000000052c0-3.9311 1.5002-7.8623 4.4995-10.8605s6.9304-4.4995 10.8605-4.4995h112.96051200000001c3.9311 0 7.8623 1.5002 10.8605 4.4995s4.4995 6.9304 4.4995 10.8605V529.880064L771.0505 406.1676V24.602623999999878zM746.2758 791.5121c-2.0173 0-3.9281-1.1991-4.7391-3.1805s-0.2888-4.1759 1.1489-5.59l107.948-106.1407-292.0141-251.4371-198.2413 168.8576L46.4599 335.063v-111.859712l313.9185 258.945 198.2413-168.83 352.7311 303.6498 89.1904-87.7169c1.4275-1.4029 3.6076-1.8934 5.5685-1.0711s3.1406 2.7208 3.1406 4.7217V786.392064c0 1.3107-0.4997 2.6204-1.5002 3.6209-0.9994 0.9994-2.3101 1.4991-3.6198 1.4991H746.27584z"  horiz-adv-x="1024" />

    
    <glyph glyph-name="guanli" unicode="&#58889;" d="M478.094 303.078l0.254-296.207c-3.18-19.34-9.415-35.626-18.194-48.477-6.998-10.18-15.905-18.704-26.593-24.939-17.94-10.688-35.753-12.723-39.061-12.978l-214.267 1.273c-19.085 1.654-35.117 6.998-47.46 15.904-9.924 6.998-18.067 16.668-24.301 28.501-11.706 22.266-12.978 45.296-13.106 47.841V219.48299999999995c7.762 34.481 24.557 57.893 51.404 71.634 21.885 11.324 43.006 11.96 44.405 11.96h286.919m-286.919 48.35c-5.47 0-119.22-1.526-144.159-126.854V13.360000000000014s1.273-129.781 131.054-139.96l217.575-1.273s111.968 2.545 131.053 131.054l-0.254 348.246H191.175z m738.354-48.35h0.255c2.163 0 22.902-0.89 44.278-11.96 26.72-13.741 43.642-37.28 51.404-71.634v-205.869c0-1.4-1.145-23.411-11.96-45.296-6.108-12.596-14.378-22.648-24.303-30.028-12.596-9.288-28.882-14.886-48.604-16.668l-214.521-1.272c-2.163 0.127-18.577 1.781-35.88 11.324-11.325 6.235-20.74 14.632-28.247 24.938-9.543 13.233-16.032 30.028-19.467 50.259l0.254 296.207H929.53m0.128 48.35H594.388l-0.254-348.374C613.219-125.45600000000002 725.187-128 725.187-128l217.575 1.272c129.781 10.18 131.054 139.96 131.054 139.96V224.44600000000003c-24.812 125.456-138.561 126.982-144.16 126.982zM726.333 847.65l214.266-1.272c19.085-1.654 35.117-6.998 47.46-15.905 9.924-6.998 18.067-16.668 24.301-28.5 11.706-22.267 12.978-45.297 13.106-47.842v-205.614c-7.762-34.481-24.557-57.893-51.404-71.634-21.885-11.324-43.006-11.96-44.405-11.96H642.738l-0.254 296.206c3.18 19.34 9.415 35.626 18.194 48.477 6.998 10.18 15.905 18.704 26.593 24.939 18.067 10.815 35.753 12.723 39.062 13.105M725.187 896S613.22 893.455 594.134 764.946l0.254-348.246h335.269c5.47 0 119.22 1.527 144.159 126.855V754.767S1072.543 884.55 942.762 894.727L725.187 896zM394.754 847.65c2.163-0.127 18.577-1.781 35.88-11.324 11.325-6.235 20.74-14.632 28.247-24.938 9.543-13.233 16.032-30.028 19.467-50.259l-0.254-296.207H190.92c-2.163 0-22.903 0.891-44.278 11.96-26.72 13.742-43.642 37.281-51.404 71.635V754.386c0 1.4 1.145 23.411 11.96 45.296 6.108 12.596 14.378 22.648 24.302 30.028 12.597 9.288 28.883 14.886 48.605 16.668l214.648 1.272m0.89 48.35L178.07 894.728C48.29 884.548 47.016 754.768 47.016 754.768v-211.213C71.828 418.227 185.577 416.7 191.176 416.7h335.268l0.254 348.246C507.613 893.456 395.645 896 395.645 896z"  horiz-adv-x="1388" />

    
    <glyph glyph-name="mongodb" unicode="&#58885;" d="M548.7 16.765c-9.67-8.272-14.913-20.505-14.913-33.088v-25.166h-29.36s-0.117 6.408-0.117 18.059c0 9.67 1.865 19.107 5.36 28.195 8.155 21.088 9.67 43.807 9.67 47.535V156.81H512c-7.34 0-14.797 0.116-21.904 0.35v-104.626c0-7.107-4.776-21.903-8.738-35.418-0.699 0.699-4.31 1.631-5.36 2.33-24.233 21.205-63.263 67.925-68.74 143.189-134.45 15.38-243.152 60.118-303.154 121.984v-167.422c1.864-104.858 183.5-189.793 407.546-189.793s405.916 84.819 407.78 189.793V283.919c-60.118-61.982-168.704-106.721-303.504-121.984-5.942-80.041-44.04-125.363-67.226-145.17z m-36.7 441.8c225.21 0 407.78 85.518 407.78 191.074S737.21 840.597 512 840.597s-407.663-85.518-407.663-191.074S286.789 458.565 512 458.565zM407.608 199.101c6.99 77.944 55.342 141.325 82.488 171.5v-177.675c7.107-0.116 14.564-0.35 21.904-0.35h7.107V387.03c14.098-13.282 91.925-77.361 97.75-188.16 173.132 21.553 301.291 95.303 302.573 183.267V549.558c-74.565-76.895-225.21-127.46-407.313-127.46s-332.749 50.565-407.897 127.81v-167.423c1.399-87.963 129.674-161.946 303.388-183.384z"  horiz-adv-x="1024" />

    
    <glyph glyph-name="collapse-left" unicode="&#58906;" d="M280.25714112 291.30285644V523.04571533h-46.34857179v-46.34857178H187.55999756v-46.34857178H141.21142578v-46.34857177h46.34857178v-46.34857178h46.34857178v-46.34857178zM141.21142578 198.60571288999995h695.22857666v-139.04571533H141.21142578V198.60571288999995zM141.21142578 754.78857422h695.22857666v-139.04571534H141.21142578V754.78857422z m231.74285889-278.09143067h463.48571777v-139.04571532H372.95428467V476.69714356z"  horiz-adv-x="1024" />

    
    <glyph glyph-name="collapse-right" unicode="&#58909;" d="M743.74285888 291.30285644v46.34857178h46.34857179v46.34857178h46.34857177v46.34857177h-46.34857177v46.34857179h-46.34857179v46.34857177h-46.34857177v-231.74285888h46.34857177z m92.69714356-231.74285888H141.21142578v139.04571533h695.22857666v-139.04571533z m0 556.18286132H141.21142578V754.78857422h695.22857666v-139.04571534zM604.69714356 337.65142822999996H141.21142578v139.04571532h463.48571778v-139.04571533z"  horiz-adv-x="1024" />

    
    <glyph glyph-name="fuwuqi" unicode="&#58890;" d="M153.6 537.088c0 0.46 716.8 0.512 716.8 0.512V742.912c0-0.46-716.8-0.512-716.8-0.512v-205.312z m-44.442-280.986a49.818 49.818 0 0 0-6.758 25.037V486.861c0 9.216 2.458 17.817 6.758 25.241a49.818 49.818 0 0 0-6.758 25.037V742.861c0 28.006 22.784 50.739 51.2 50.739h716.8a51.2 51.2 0 0 0 51.2-50.688v-205.824a50.09 50.09 0 0 0-6.758-25.19 49.818 49.818 0 0 0 6.758-25.037v-205.722c0-9.216-2.458-17.817-6.758-25.241a49.818 49.818 0 0 0 6.758-25.037v-205.722c0-28.006-22.784-50.739-51.2-50.739H153.6a51.2 51.2 0 0 0-51.2 50.688V230.912a50.09 50.09 0 0 0 6.758 25.19zM153.6 25.14c0 0.359 716.8 0.461 716.8 0.461V230.912c0-0.46-716.8-0.512-716.8-0.512v-205.312z m0 256c0 0.359 716.8 0.461 716.8 0.461V486.912c0-0.46-716.8-0.512-716.8-0.512v-205.312zM230.4 640a25.6 25.6 0 1 1 0 51.2 25.6 25.6 0 0 1 0-51.2z m102.4 0a25.6 25.6 0 1 1 0 51.2 25.6 25.6 0 0 1 0-51.2zM512 665.6a25.6 25.6 0 0 0 25.14 25.6h256.92a25.6 25.6 0 0 0 0-51.2H537.14A25.6 25.6 0 0 0 512 665.6zM230.4 384a25.6 25.6 0 1 1 0 51.2 25.6 25.6 0 0 1 0-51.2z m102.4 0a25.6 25.6 0 1 1 0 51.2 25.6 25.6 0 0 1 0-51.2zM512 409.6a25.6 25.6 0 0 0 25.14 25.6h256.92a25.6 25.6 0 0 0 0-51.2H537.14A25.6 25.6 0 0 0 512 409.6zM230.4 128a25.6 25.6 0 1 1 0 51.2 25.6 25.6 0 0 1 0-51.2z m102.4 0a25.6 25.6 0 1 1 0 51.2 25.6 25.6 0 0 1 0-51.2zM512 153.6a25.6 25.6 0 0 0 25.14 25.6h256.92a25.6 25.6 0 0 0 0-51.2H537.14A25.6 25.6 0 0 0 512 153.6z"  horiz-adv-x="1024" />

    
    <glyph glyph-name="Stark" unicode="&#58881;" d="M1006.91 485.094c-39.163 26.599-85.023 27.172-115.36 23.383-15.021 63.063-72.181 98.765-75.002 100.496l-21.601 13.215-15.432-20.081c-48.778-63.493-35.876-132.598-15.253-175.16-25.697-13.594-51.333-14.09-51.522-14.09h-17.321V517.6H577.336V721.8530000000001H434.662v-102.128H200.837V517.6H83.922v-104.74H7.665l-3.63-23.94c-0.82-5.423-19.129-133.797 66.35-233.206 62.51-72.704 162.411-109.568 296.919-109.568 207.8 0 335.472 91.53 405.975 168.314 54.999 59.894 84.372 119.67 96.932 149.786 130.16 2.186 147.84 88.53 148.561 92.385l3.385 18.11-15.248 10.352z m-531.288 32.912v60.759h60.76v-60.76h-60.76zM241.797 415.887v60.754h60.76v-60.754h-60.76z m116.915 0v60.754h60.754v-60.754h-60.754z m116.91 0v60.754h60.76v-60.754h-60.76z m118.088 60.754h60.749v-60.754H593.71v60.754zM475.622 680.893h60.76v-60.753h-60.76v60.753z m-116.91-102.128h60.754v-60.76h-60.754v60.76z m-116.915 0h60.76v-60.76h-60.76v60.76zM124.882 476.64h60.759v-60.754h-60.76v60.754z m242.422-374.174c-63.862 0-118.298 8.965-162.934 26.757 33.116 6.958 70.845 19.927 104.801 43.812 12.718 8.944 15.78 26.51 6.83 39.229s-26.511 15.79-39.234 6.83c-55.199-38.83-126.52-41.544-149.822-41.267a206.731 206.731 0 0 0-13.47 14.167C64.405 248.74 57.933 320.03999999999996 58.296 356.547h654.449c2.473 0 61.148 0.465 107.612 40.975l3.507 3.057c-5.376-15.755-107.028-298.112-456.56-298.112z m484.95 318.366l-17.402 0.83-10.476 13.972c-0.44 0.584-37.493 51.129-15.027 106.563 14.382-14.915 30.26-37.975 29.435-66.57l-1.152-39.91 37.98 12.302c0.481 0.154 40.366 12.32 77.092 1.122-13.025-14.152-41.206-31.145-100.45-28.309zM379.259 306.427c-25.35 0-45.967-20.618-45.967-45.973 0-25.344 20.618-45.967 45.967-45.967 25.344 0 45.967 20.618 45.967 45.967-0.005 25.35-20.623 45.973-45.967 45.973z m0-56.32c-5.709 0-10.353 4.644-10.353 10.347 0 5.71 4.644 10.353 10.353 10.353s10.353-4.644 10.353-10.353c0-5.703-4.65-10.347-10.353-10.347z"  horiz-adv-x="1024" />

    
    <glyph glyph-name="dns2" unicode="&#58893;" d="M52.987937 142.823619a24.380952 24.380952 0 0 0 42.715428 23.552c81.091048-147.114667 238.51073-240.916317 413.013333-240.916317 168.147302 0 320.690794 87.04 404.284953 225.751365a24.380952 24.380952 0 1 0 41.772698-25.177397C862.37054-27.225397 694.044444-123.286349 508.700444-123.286349c-192.34946 0-366.088127 103.537778-455.728761 266.126222z m941.267301 414.313651a24.380952 24.380952 0 1 0-45.624889-17.196699C881.452698 718.132825 706.852571 839.111111 508.716698 839.111111c-199.501206 0-375.02781-122.652444-441.213968-302.648889a24.380952 24.380952 0 1 0-45.75492 16.822857C94.971937 752.47746 288.768 887.873016 508.716698 887.873016c218.453333 0 411.176635-133.558857 485.53854-330.735746zM39.350857 463.01054h89.315556c39.69219 0 69.453206-10.955175 89.998222-32.865524 19.504762-20.528762 29.419683-50.289778 29.419682-89.299302 0-38.684444-9.914921-68.429206-29.419682-89.315555-20.545016-21.894095-50.306032-32.84927-89.998222-32.84927H39.334603V462.994286z m40.033524-34.230857v-175.867937h41.756444c30.443683 0 52.695365 7.168 66.72254 21.195175 13.685841 14.384762 20.528762 36.62019 20.528762 66.738793 0 30.785016-6.842921 53.378032-20.528762 67.063873-14.027175 14.027175-36.278857 20.870095-66.72254 20.870096H79.384381z m212.845714 34.230857h89.315556c39.69219 0 69.453206-10.955175 89.998222-32.865524 19.504762-20.528762 29.419683-50.289778 29.419683-89.299302 0-38.684444-9.914921-68.429206-29.419683-89.315555-20.545016-21.894095-50.306032-32.84927-89.998222-32.84927h-89.315556V462.994286z m40.033524-34.230857v-175.867937h41.756444c30.443683 0 52.695365 7.168 66.72254 21.195175 13.685841 14.384762 20.528762 36.62019 20.528762 66.738793 0 30.785016-6.842921 53.378032-20.528762 67.063873-14.027175 14.027175-36.278857 20.870095-66.72254 20.870096h-41.756444z m212.845714 34.230857H585.142857l120.799492-176.241778h1.365334V463.01054H747.68254v-244.329651h-39.009524l-122.164826 178.631111H585.142857v-178.631111h-40.033524V462.994286z m343.218794 4.778666c28.737016 0 51.330032-5.818921 67.405206-17.781841 17.115429-12.678095 27.030349-32.507937 29.419683-59.213206h-39.692191c-3.413333 15.067429-9.914921 26.006349-18.805841 32.507936-8.907175 6.842921-22.593016 9.914921-40.391111 9.914921-15.392508 0-27.030349-2.031746-35.238603-6.501587-10.272508-5.12-15.051175-13.669587-15.051175-25.307429 0-10.272508 5.461333-18.822095 17.099175-24.982349 5.136254-2.730667 19.179683-7.866921 41.756444-15.051175 33.190603-10.272508 54.402032-18.480762 63.975619-23.958349 21.227683-12.661841 31.82527-30.102349 31.82527-52.695365 0-21.894095-8.549587-39.334603-25.665016-52.012699-17.099175-12.320508-41.398857-18.822095-72.54146-18.822095-30.102349 0-53.719365 5.818921-70.49346 17.456762-20.528762 14.368508-31.809016 36.961524-33.531937 68.104127h39.692191c2.746921-18.480762 9.248508-31.841524 19.846095-39.708444 9.589841-6.826667 24.299683-10.597587 44.487111-10.597588 17.798095 0 32.182857 3.088254 42.422857 8.890921 10.272508 6.160254 15.766349 14.027175 15.766349 24.299683 0 13.003175-7.883175 23.259429-22.934349 30.785015-4.794921 2.405587-20.528762 7.883175-47.575365 16.091429-30.102349 9.589841-48.924444 16.416508-56.108698 20.528762-18.822095 11.296508-28.070603 27.713016-28.070604 49.282032 0 21.552762 8.907175 38.66819 27.387937 50.988698 17.099175 11.962921 38.66819 17.781841 65.015873 17.781841z"  horiz-adv-x="1024" />

    
    <glyph glyph-name="paas" unicode="&#58996;" d="M969.142857 797.805714v-827.611428H54.857143V797.805714h914.285714m18.285714 54.857143H36.571429a36.571429 36.571429 0 0 1-36.571429-36.571428v-864.182858a36.571429 36.571429 0 0 1 36.571429-36.571428h950.857142a36.571429 36.571429 0 0 1 36.571429 36.571428V816.091429a36.571429 36.571429 0 0 1-36.571429 36.571428zM0 629.942857h1024v-54.857143H0zM131.474286 739.657143h48.822857v-54.857143H131.474286zM231.68 739.657143h48.822857v-54.857143h-48.822857zM335.36 739.657143h48.822857v-54.857143h-48.822857z"  horiz-adv-x="1024" />

    
    <glyph glyph-name="yunshujukuMemcacheban" unicode="&#59216;" d="M725.29 552.597v99.307L512 768 298.71 651.904l-1.473-99.307 214.827-99.477 213.227 99.307v-99.478L512 353.92l-0.49-0.17-212.8 99.22v99.478L85.332 453.12v-252.267L299.2 101.632 512-3.627v0.32l213.205 104.854 213.462 99.306V453.12z"  horiz-adv-x="1024" />

    
    <glyph glyph-name="dns" unicode="&#58930;" d="M846.8 694.3c-82.6 8.3-163.2 34.8-233 76.8l-103.1 62-92-57c-67.6-41.9-146-69.2-226.7-79.1l-83.3-10.2V247c0-125.5 342.7-310.6 402.3-310.6s402.3 185 402.3 310.6V687.7l-66.5 6.6z m-18.2-447.2c-4.3-53-261.7-217.7-315.7-226.1-57.9 8.5-315.5 173.2-319.6 226V611.9l8.9 1.1c92.7 11.4 183 42.9 261 91.2l48.1 29.8 58.9-35.4c77.7-46.7 166.8-76.8 258.4-87.4v-364.1zM333 517.7h-97.5v-241.8H334c70.4 0 72.5 68.1 72.5 120.9 0 57.6-2.4 70.4-12.9 89.4-10.8 19.7-30.5 31.5-60.6 31.5z m3.8-156.1c0-18.3-2.7-36.9-19.6-36.9h-13.9V468.9h9.8c21 0 23.7-12.5 23.7-36.9v-70.4zM539.7 370h-0.7l-34.5 147.7H431v-241.8h61.6v149h0.6l37.6-149h72.5V517.7h-63.6zM704.3 271.1c62.7 0 88.7 22.4 88.7 78.6 0 86.4-100.9 61.6-100.9 109.7 0 9.8 5.4 18.3 15.6 18.3 11.5 0 15.9-9.5 15.9-19.6v-9.8h63.6c0 40.3-11.5 74.2-79.9 74.2-26.4 0-43.7-6.8-55.2-14.9-15.6-11.2-25.7-29.4-25.7-62.9 0-35.9 12.2-49.1 48.8-67.4 12.2-6.1 24.4-10.8 33.5-15.9 8.8-5 14.6-8.4 14.6-24 0-10.5-4.1-21.3-16.6-21.3-11.8 0-16.9 9.5-16.9 21.3v11.2h-65.7v-6.4c0-53.4 28.4-71.1 80.2-71.1z"  horiz-adv-x="1024" />

    
    <glyph glyph-name="shujuku" unicode="&#58917;" d="M20.330667 181.376v-64L511.104-128l492.565333 246.293333v64L511.104-64zM20.330667 617.685333h55.466666v-495.082666h-55.466666zM948.202667 613.802667h55.466666v-495.082667h-55.466666zM832.512 532.437333l14.784 7.317334-0.085333 0.042666zM847.296 539.754667l63.914667-31.957334-78.698667-39.36 170.752 84.501334-64.341333 32.170666zM511.104 371.733333L153.770667 550.4 111.146667 571.882667l-0.170667-0.085334zM1003.264 616.938667zM1003.264 552.938667zM511.104 307.733333L153.770667 486.4 111.146667 507.882667l-0.170667-0.085334zM1003.264 616.938667l-492.16-245.205334-400.128 200.064 0.170667 0.085334-90.816 45.76v-64l90.816-45.76L153.770667 486.4l357.333333-178.666667 492.16 245.205334 0.128-26.218667 0.277333 0.128zM465.834667 733.674667l5.013333-32.192 3.690667-23.701334 22.165333-9.173333 33.984-14.058667-34.261333-19.669333-19.584-11.242667-1.728-22.506666-2.752-35.968-22.933334 22.869333-17.450666 17.408-23.786667-6.4-32.149333-8.661333 15.829333 33.877333 9.429333 20.202667-11.2 19.285333-19.904 34.282667 36.650667-4.8 23.616-3.093334 15.018667 18.496 20.352 25.045334m27.392 101.397333l-80.853334-99.541333-122.602666 16.042666 63.445333-109.269333-54.592-116.885333 0.213333 0.064-0.042666-0.106667 120.512 32.469333 88.512-88.298666 9.834666 128.341333 109.568 62.890667-114.24 47.253333-19.754666 127.04zM235.2 725.077333L20.330667 617.642667v-0.448L83.84 585.386667l180.693333 90.346666zM847.296 694.933333l-7.402667-60.309333 99.029334-49.514667 64.341333 31.829334zM775.616 811.306667L762.453333 896l-53.909333-66.368-81.749333 10.688 42.304-72.832-36.288-77.952 80.341333 21.632 59.029333-58.858667 6.549334 85.568 73.045333 41.92z"  horiz-adv-x="1024" />

    
    <glyph glyph-name="shenji" unicode="&#58916;" d="M533.719758-128H90.707559A18.28551 18.28551 0 0 0 72.479191-109.771632V877.771632A18.28551 18.28551 0 0 0 90.707559 896h749.511635a18.28551 18.28551 0 0 0 18.228368-18.228368v-555.193804a18.28551 18.28551 0 0 0-18.228368-18.228368 18.28551 18.28551 0 0 0-18.228368 18.228368V859.531836H108.935927v-951.086528h424.795259a18.28551 18.28551 0 0 0 18.228368-18.228368A18.28551 18.28551 0 0 0 533.719758-128zM678.643854 657.53409h-436.566556a18.28551 18.28551 0 0 0-18.239796 18.182654 18.28551 18.28551 0 0 0 18.228368 18.228368h436.566556a18.28551 18.28551 0 0 0 18.228368-18.228368 18.28551 18.28551 0 0 0-18.21694-18.182654zM461.834846 438.53082h-219.768976a18.28551 18.28551 0 0 0-18.228368 18.228368 18.28551 18.28551 0 0 0 18.228368 18.228368h219.768976a18.28551 18.28551 0 0 0 18.228368-18.228368 18.28551 18.28551 0 0 0-18.228368-18.228368zM649.88989-30.195377c-38.011004 0-77.393422 7.999911-117.038694 23.736878-31.313936 12.434147-62.856441 29.713954-93.804668 51.427997-52.456557 36.742447-84.856196 73.142041-86.204752 74.707738a18.28551 18.28551 0 0 0 0 24.125445c1.348556 1.531411 33.759623 37.965291 86.204752 74.707737 30.936798 21.714043 62.490731 38.959565 93.804668 51.427998 39.645272 15.748396 79.027689 23.736878 117.038694 23.736878s77.393422-7.999911 117.038693-23.736878c31.313936-12.434147 62.856441-29.713954 93.804668-51.427998 52.456557-36.742447 84.856196-73.142041 86.204752-74.707737a18.21694 18.21694 0 0 0 0-24.125445c-1.348556-1.531411-33.759623-37.965291-86.204752-74.707738-30.936798-21.714043-62.490731-38.959565-93.804668-51.427997-39.633843-15.748396-79.004833-23.736878-117.038693-23.736878zM391.801342 131.722816a533.11405 533.11405 0 0 1 68.902088-57.416502c44.479504-31.039654 113.404449-68.033526 189.197888-68.033527 120.455798 0 224.248926 91.918974 258.111405 125.472885a533.056908 533.056908 0 0 1-68.902088 57.416503c-44.479504 31.039654-113.404449 68.033526-189.197888 68.033526-120.455798-0.011428-224.248926-91.930403-258.111405-125.472885zM652.712715 131.722816m-73.644892 0a73.644892 73.644892 0 1 1 147.289785 0 73.644892 73.644892 0 1 1-147.289785 0ZM652.712715 39.849555a91.976116 91.976116 0 0 0-91.87326 91.873261 91.976116 91.976116 0 0 0 91.87326 91.87326 91.976116 91.976116 0 0 0 91.873261-91.87326 91.976116 91.976116 0 0 0-91.873261-91.873261z m0 147.289785a55.485095 55.485095 0 0 1-55.393667-55.416524 55.485095 55.485095 0 0 1 55.416524-55.416525 55.485095 55.485095 0 0 1 55.439381 55.416525 55.485095 55.485095 0 0 1-55.462238 55.416524z"  horiz-adv-x="1024" />

    
    <glyph glyph-name="jiankong1" unicode="&#58940;" d="M688 51.4H369c-15.4 0-28-12.6-28-28s12.6-28 28-28h319c15.4 0 28 12.6 28 28s-12.6 28-28 28zM885.6 749.4h-714c-15.4 0-28-12.6-28-28v-524c0-15.4 12.6-28 28-28h714c15.4 0 28 12.6 28 28v524c0 15.4-12.6 28-28 28z m-686-262v178c0 15.4 12.6 28 28 28h602c15.4 0 28-12.6 28-28v-178c0-15.4-12.6-28-28-28h-87.8L606 640.4c-9.2 12.3-26.9 14.8-39.2 5.6-3.9-2.9-6.8-6.6-8.6-10.8L415.3 387.8l-22.7 54.7c-5 12.1-17.6 18.8-30.1 17h-135c-15.3-0.1-27.9 12.5-27.9 27.9z m670-233c0-15.4-12.6-28-28-28h-602c-15.4 0-28 12.6-28 28v122c0 15.4 12.6 28 28 28h108.2l37.2-89.6c1.1-2.7 2.7-5.2 4.5-7.3 2.1-2.7 4.7-5 7.9-6.8 13.3-7.7 30.5-3.1 38.2 10.2l151.2 261.9L705 415.2c4.3-5.7 10.4-9.3 17-10.6v-0.2h1.1c2.9-0.5 5.9-0.5 8.8 0h109.8c15.4 0 28-12.6 28-28v-122z"  horiz-adv-x="1024" />

    
    <glyph glyph-name="shujujiankongtubiao" unicode="&#58907;" d="M1354.313143 523.117714l-335.286857-330.605714a61.805714 61.805714 0 0 0-86.528 0c-2.998857 2.925714-4.534857 6.656-6.729143 10.020571l-291.84 287.744-302.08-297.691428a61.805714 61.805714 0 0 0-86.528 0 59.684571 59.684571 0 0 0 0 85.211428l339.529143 334.701715c1.536 1.974857 2.267429 4.388571 4.096 6.144a63.341714 63.341714 0 0 0 88.649143 0c0.731429-0.731429 1.024-1.828571 1.755428-2.633143l298.057143-293.814857 294.546286 290.377143c1.609143 1.901714 2.340571 4.315429 4.169143 6.070857a63.341714 63.341714 0 0 0 88.649142 0 61.147429 61.147429 0 0 0-10.459428-95.524572M1326.957714-114.102857H59.026286a55.954286 55.954286 0 0 0-56.173715 55.296v12.434286c0 30.427429 25.307429 55.369143 56.173715 55.369142h1267.931428c30.866286 0 56.100571-24.868571 56.100572-55.369142v-12.434286a55.954286 55.954286 0 0 0-56.100572-55.369143M124.928 825.782857v-866.962286a62.171429 62.171429 0 0 0-62.464-61.586285 62.171429 62.171429 0 0 0-62.464 61.586285V825.782857A62.171429 62.171429 0 0 0 62.464 887.369143a62.171429 62.171429 0 0 0 62.464-61.586286"  horiz-adv-x="1389" />

    
    <glyph glyph-name="Memcache" unicode="&#58987;" d="M850.120784 606.770196V736.597333L571.291608 888.370196 292.462431 736.577255l-1.927529-129.827137 280.83702-130.048 278.748862 129.827137v-130.048L571.291608 347.055686l-278.829177 129.485804v130.048L13.512784 476.722196v-329.768157l279.592157-129.706666 278.186667-137.617569 278.728784 137.497098 279.050039 129.827137V476.722196z"  horiz-adv-x="1144" />

    
    <glyph glyph-name="Memcachex" unicode="&#59004;" d="M654.20288 497.6128v66.21184L512 641.2288 369.79712 563.8144l-0.98304-66.21184 143.22688-66.32448 142.16192 66.21184v-66.32448L512 365.1584l-142.20288 66.03776v66.32448L227.5328 431.28832v-168.18176l142.592-66.1504L512 126.7712l142.15168 70.12352 142.31552 66.21184V431.28832z"  horiz-adv-x="1024" />

    
    <glyph glyph-name="python" unicode="&#58986;" d="M399.58718 823.2c-90.4-16-106.8-49.4-106.8-111.2v-81.4h213.8v-27.2h-294c-62.2 0-116.6-37.4-133.6-108.4-19.6-81.4-20.4-132.2 0-217.2 15.2-63.2 51.4-108.4 113.6-108.4H265.98718v97.6c0 70.6 61 132.8 133.6 132.8h213.6c59.4 0 106.8 49 106.8 108.6V712.2c0 58-48.8 101.4-106.8 111.2-71.6 11.8-149.4 11.2-213.6-0.2z m-13.4-56.8c22 0 40.2-18.4 40.2-40.8s-18-40.6-40.2-40.6c-22.2 0-40.2 18.2-40.2 40.6 0.2 22.6 18 40.8 40.2 40.8z m370.4-162.8v-95c0-73.6-62.4-135.6-133.6-135.6H409.38718c-58.4 0-106.8-50-106.8-108.6v-203.6c0-58 50.4-92 106.8-108.6 67.6-19.8 132.6-23.4 213.6 0 53.8 15.6 106.8 47 106.8 108.6v81.4H516.38718v27.2h320.4c62.2 0 85.2 43.4 106.8 108.4 22.4 67 21.4 131.4 0 217.2-15.4 61.8-44.6 108.4-106.8 108.4h-80.2zM636.38718 88c22.2 0 40.2-18.2 40.2-40.6 0-22.6-18-40.8-40.2-40.8-22 0-40.2 18.4-40.2 40.8 0.2 22.6 18.2 40.6 40.2 40.6z"  horiz-adv-x="1024" />

    
    <glyph glyph-name="DCMTS" unicode="&#58895;" d="M896 247.466667H128c-34.133333 0-64 29.866667-64 64v140.8c0 38.4 25.6 64 64 64h768c38.4 0 64-25.6 64-64v-140.8c0-34.133333-29.866667-64-64-64zM128 473.6c-12.8 0-21.333333-8.533333-21.333333-21.333333v-140.8c0-12.8 12.8-21.333333 21.333333-21.333334h768c12.8 0 21.333333 12.8 21.333333 21.333334v140.8c0 12.8-8.533333 21.333333-21.333333 21.333333H128zM477.866667 328.533333H277.333333c-12.8 0-21.333333 8.533333-21.333333 21.333334s8.533333 21.333333 21.333333 21.333333h200.533334c12.8 0 21.333333-8.533333 21.333333-21.333333s-8.533333-21.333333-21.333333-21.333334zM477.866667 392.533333H277.333333c-12.8 0-21.333333 8.533333-21.333333 21.333334s8.533333 21.333333 21.333333 21.333333h200.533334c12.8 0 21.333333-8.533333 21.333333-21.333333s-8.533333-21.333333-21.333333-21.333334zM170.666667 337.066667c-12.8 0-21.333333 8.533333-21.333334 21.333333v46.933333c0 12.8 8.533333 21.333333 21.333334 21.333334s21.333333-8.533333 21.333333-21.333334v-46.933333c0-12.8-8.533333-21.333333-21.333333-21.333333zM853.333333 337.066667c-12.8 0-21.333333 8.533333-21.333333 21.333333v46.933333c0 12.8 8.533333 21.333333 21.333333 21.333334s21.333333-8.533333 21.333334-21.333334v-46.933333c0-12.8-8.533333-21.333333-21.333334-21.333333zM170.666667 38.4c-12.8 0-21.333333 8.533333-21.333334 21.333333v51.2c0 8.533333 8.533333 17.066667 21.333334 17.066667s21.333333-8.533333 21.333333-21.333333v-51.2c0-8.533333-8.533333-17.066667-21.333333-17.066667zM853.333333 38.4c-12.8 0-21.333333 8.533333-21.333333 21.333333v51.2c0 12.8 8.533333 21.333333 21.333333 21.333334s21.333333-8.533333 21.333334-21.333334v-51.2c0-12.8-8.533333-21.333333-21.333334-21.333333zM170.666667 635.733333c-12.8 0-21.333333 8.533333-21.333334 21.333334V704c0 12.8 8.533333 21.333333 21.333334 21.333333s21.333333-8.533333 21.333333-21.333333v-46.933333c0-12.8-8.533333-21.333333-21.333333-21.333334zM853.333333 635.733333c-12.8 0-21.333333 8.533333-21.333333 21.333334V704c0 12.8 8.533333 21.333333 21.333333 21.333333s21.333333-8.533333 21.333334-21.333333v-46.933333c0-12.8-8.533333-21.333333-21.333334-21.333334zM622.933333 413.866667m-17.066666 0a17.066667 17.066667 0 1 1 34.133333 0 17.066667 17.066667 0 1 1-34.133333 0ZM691.2 413.866667m-17.066667 0a17.066667 17.066667 0 1 1 34.133334 0 17.066667 17.066667 0 1 1-34.133334 0ZM759.466667 413.866667m-17.066667 0a17.066667 17.066667 0 1 1 34.133333 0 17.066667 17.066667 0 1 1-34.133333 0ZM622.933333 345.6m-17.066666 0a17.066667 17.066667 0 1 1 34.133333 0 17.066667 17.066667 0 1 1-34.133333 0ZM691.2 345.6m-17.066667 0a17.066667 17.066667 0 1 1 34.133334 0 17.066667 17.066667 0 1 1-34.133334 0ZM759.466667 345.6m-17.066667 0a17.066667 17.066667 0 1 1 34.133333 0 17.066667 17.066667 0 1 1-34.133333 0ZM896 550.4H128c-34.133333 0-64 29.866667-64 64V750.933333c0 38.4 25.6 64 64 64h768c38.4 0 64-25.6 64-64v-140.8c0-34.133333-29.866667-59.733333-64-59.733333zM128 772.266667c-12.8 0-21.333333-4.266667-21.333333-21.333334v-140.8c0-12.8 12.8-17.066667 21.333333-17.066666h768c12.8 0 21.333333 12.8 21.333333 21.333333V750.933333c0 12.8-8.533333 21.333333-21.333333 21.333334H128zM477.866667 622.933333H277.333333c-12.8 0-21.333333 12.8-21.333333 21.333334s8.533333 21.333333 21.333333 21.333333h200.533334c12.8 0 21.333333-8.533333 21.333333-21.333333s-8.533333-21.333333-21.333333-21.333334zM477.866667 691.2H277.333333c-12.8 0-21.333333 12.8-21.333333 21.333333s8.533333 21.333333 21.333333 21.333334h200.533334c12.8 0 21.333333-8.533333 21.333333-21.333334s-8.533333-21.333333-21.333333-21.333333zM622.933333 716.8m-17.066666 0a17.066667 17.066667 0 1 1 34.133333 0 17.066667 17.066667 0 1 1-34.133333 0ZM691.2 716.8m-17.066667 0a17.066667 17.066667 0 1 1 34.133334 0 17.066667 17.066667 0 1 1-34.133334 0ZM759.466667 716.8m-17.066667 0a17.066667 17.066667 0 1 1 34.133333 0 17.066667 17.066667 0 1 1-34.133333 0ZM622.933333 648.533333m-17.066666 0a17.066667 17.066667 0 1 1 34.133333 0 17.066667 17.066667 0 1 1-34.133333 0ZM691.2 648.533333m-17.066667 0a17.066667 17.066667 0 1 1 34.133334 0 17.066667 17.066667 0 1 1-34.133334 0ZM759.466667 648.533333m-17.066667 0a17.066667 17.066667 0 1 1 34.133333 0 17.066667 17.066667 0 1 1-34.133333 0ZM896-51.2H128c-34.133333 0-64 29.866667-64 64v140.8c0 38.4 25.6 64 64 64h768c38.4 0 64-25.6 64-64v-140.8c0-34.133333-29.866667-64-64-64zM128 179.2c-12.8 0-21.333333-8.533333-21.333333-21.333333v-140.8c0-12.8 12.8-21.333333 21.333333-21.333334h768c12.8 0 21.333333 12.8 21.333333 21.333334v140.8c0 12.8-8.533333 21.333333-21.333333 21.333333H128zM477.866667 29.866667H277.333333c-12.8 0-21.333333 8.533333-21.333333 21.333333s8.533333 21.333333 21.333333 21.333333h200.533334c12.8 0 21.333333-8.533333 21.333333-21.333333s-8.533333-21.333333-21.333333-21.333333zM477.866667 93.866667H277.333333c-12.8 0-21.333333 8.533333-21.333333 21.333333s8.533333 21.333333 21.333333 21.333333h200.533334c12.8 0 21.333333-8.533333 21.333333-21.333333s-8.533333-21.333333-21.333333-21.333333zM622.933333 115.2m-17.066666 0a17.066667 17.066667 0 1 1 34.133333 0 17.066667 17.066667 0 1 1-34.133333 0ZM691.2 115.2m-17.066667 0a17.066667 17.066667 0 1 1 34.133334 0 17.066667 17.066667 0 1 1-34.133334 0ZM759.466667 115.2m-17.066667 0a17.066667 17.066667 0 1 1 34.133333 0 17.066667 17.066667 0 1 1-34.133333 0ZM622.933333 46.933333m-17.066666 0a17.066667 17.066667 0 1 1 34.133333 0 17.066667 17.066667 0 1 1-34.133333 0ZM691.2 46.933333m-17.066667 0a17.066667 17.066667 0 1 1 34.133334 0 17.066667 17.066667 0 1 1-34.133334 0ZM759.466667 46.933333m-17.066667 0a17.066667 17.066667 0 1 1 34.133333 0 17.066667 17.066667 0 1 1-34.133333 0Z"  horiz-adv-x="1024" />

    
    </font>
</defs>
</svg>
